<?xml version="1.0" standalone="no"?>
<!DOCTYPE svg PUBLIC "-//W3C//DTD SVG 20010904//EN"
 "http://www.w3.org/TR/2001/REC-SVG-20010904/DTD/svg10.dtd">
<svg version="1.0" xmlns="http://www.w3.org/2000/svg"
 width="1578.000000pt" height="1508.000000pt" viewBox="0 0 1578.000000 1508.000000"
 preserveAspectRatio="xMidYMid meet">

<g transform="translate(0.000000,1508.000000) scale(0.100000,-0.100000)"
fill="#000000" stroke="none">
<path d="M5410 12025 l-2535 -1513 -3 -1075 -2 -1075 -38 -6 c-20 -3 -293 -26
-607 -52 -314 -26 -571 -47 -572 -48 -1 -1 5 -87 12 -191 8 -105 15 -201 15
-215 l0 -25 -665 -80 c-372 -44 -665 -84 -665 -89 0 -5 174 -371 386 -812
l385 -802 -279 -843 -280 -844 37 -2 c20 -1 472 35 1006 80 l970 82 7 25 c4
14 10 168 14 343 4 223 10 320 18 323 21 8 10671 891 10678 885 3 -3 12 -175
18 -381 7 -206 13 -376 14 -377 2 -3 2088 235 2090 239 2 2 -161 350 -360 773
l-363 770 213 825 213 825 -643 3 -644 2 0 23 c-1 41 -38 469 -42 472 -1 2
-156 -10 -343 -26 -187 -16 -359 -29 -382 -29 l-43 0 -2 652 -3 651 -2520
1504 c-1386 827 -2527 1508 -2535 1513 -11 6 -738 -424 -2550 -1505z m4983
-152 c1343 -801 2445 -1462 2449 -1467 4 -6 8 -282 8 -612 l0 -602 -52 -6
c-29 -3 -89 -8 -134 -12 l-81 -6 -7 518 c-4 286 -11 520 -16 522 -5 2 -7 9 -4
15 2 7 -600 363 -1528 903 l-1533 891 -8 54 c-22 155 -139 264 -283 263 -157
-1 -279 -132 -278 -299 1 -116 52 -203 154 -263 39 -23 56 -27 125 -27 90 0
126 14 187 72 l37 36 203 -118 c112 -65 210 -124 218 -132 12 -11 -191 -13
-1264 -11 l-1278 3 -19 51 c-72 193 -309 250 -453 109 -58 -58 -86 -125 -86
-211 0 -89 21 -151 71 -208 124 -141 337 -125 439 34 l32 50 1440 0 1440 0
1097 -637 c603 -350 1104 -643 1114 -651 16 -14 17 -50 17 -499 l0 -483 -27 0
c-16 -1 -120 -9 -233 -19 -113 -10 -208 -16 -212 -14 -5 2 -8 204 -8 449 l0
444 -547 2 -548 3 -5 425 c-3 234 -7 426 -8 428 -1 2 -239 2 -528 2 l-525 -2
-25 51 c-67 134 -230 191 -362 125 -272 -135 -181 -584 118 -584 116 0 205 62
256 177 l24 53 440 0 440 0 0 -340 0 -340 -504 0 -505 0 -15 53 c-63 217 -326
280 -473 113 -57 -64 -77 -128 -71 -225 6 -91 28 -140 90 -197 61 -57 120 -77
206 -72 85 4 149 40 202 111 l35 47 515 -2 515 -3 3 -412 2 -413 -22 -4 c-13
-3 -58 -8 -100 -11 l-78 -6 0 191 0 190 -910 0 -910 0 0 695 0 694 28 15 c86
45 146 152 146 261 0 170 -120 295 -283 295 -89 0 -160 -35 -213 -104 -115
-153 -74 -368 86 -452 l56 -29 0 -427 0 -428 -1215 0 c-1149 0 -1216 1 -1221
18 -26 85 -75 150 -143 190 -40 24 -56 27 -131 27 -62 0 -94 -5 -117 -18 -101
-55 -163 -156 -163 -268 0 -85 22 -147 73 -205 127 -145 362 -119 448 49 l19
37 1225 0 1225 0 0 -255 c0 -140 1 -256 3 -257 1 -1 409 -5 907 -8 l905 -5 3
-110 3 -110 -2563 -213 c-1410 -117 -2573 -213 -2585 -213 l-23 1 0 250 0 250
903 0 904 0 11 -24 c19 -43 74 -97 126 -123 40 -21 65 -26 116 -26 299 1 390
447 119 582 -159 79 -337 -6 -390 -186 l-12 -43 -889 0 -888 0 2 698 3 697
892 3 892 2 19 -43 c103 -233 422 -221 512 20 76 204 -58 423 -260 423 -116 0
-205 -62 -256 -177 l-24 -53 -975 0 -975 0 0 -1134 0 -1134 -57 -6 c-32 -3
-170 -15 -308 -26 -137 -11 -265 -22 -282 -24 l-33 -5 0 547 1 547 51 30 c202
117 191 429 -17 530 -62 30 -160 32 -223 5 -61 -26 -125 -92 -154 -158 -31
-68 -28 -172 4 -244 27 -59 83 -120 129 -140 l29 -13 0 -557 0 -557 -42 -5
c-24 -3 -131 -13 -238 -21 -107 -8 -216 -18 -242 -21 l-48 -6 0 854 0 853
1950 1146 1950 1145 48 -46 c140 -135 344 -94 433 85 52 106 44 229 -21 327
-80 121 -233 159 -357 88 -79 -45 -136 -134 -149 -234 l-7 -45 -2013 -1183
-2014 -1183 -2 -910 -3 -910 -90 -7 c-49 -4 -109 -9 -133 -11 l-42 -5 2 1021
3 1020 2440 1458 c1342 801 2444 1457 2448 1458 4 1 1107 -655 2450 -1456z
m-2722 817 c10 -6 26 -24 34 -40 56 -109 -55 -227 -130 -138 -24 28 -27 38
-23 87 4 44 10 59 32 78 29 25 56 29 87 13z m1590 -579 c33 -34 39 -83 14
-130 -27 -53 -90 -57 -130 -9 -23 27 -26 39 -22 77 9 85 82 117 138 62z
m-2180 -500 c23 -23 29 -38 29 -71 0 -52 -13 -76 -50 -95 -32 -17 -64 -9 -92
21 -55 62 -13 172 65 174 10 0 32 -13 48 -29z m1473 -481 c29 -11 56 -57 56
-95 0 -38 -25 -79 -56 -94 -86 -39 -155 99 -85 170 32 31 46 34 85 19z m979
-270 c75 -59 44 -203 -43 -203 -86 0 -117 145 -43 203 32 25 53 25 86 0z
m-2330 -41 c74 -57 43 -202 -43 -202 -86 0 -117 145 -43 203 33 25 53 25 86
-1z m2215 -775 c34 -39 31 -107 -7 -145 -33 -33 -50 -35 -91 -14 -33 17 -55
71 -45 115 4 16 20 41 37 55 37 31 71 28 106 -11z m-5190 -121 c34 -37 31
-106 -7 -144 -33 -33 -50 -35 -90 -14 -60 31 -66 123 -10 169 36 31 72 27 107
-11z m1570 -19 c37 -41 33 -108 -9 -146 -37 -36 -61 -35 -101 1 -29 25 -33 35
-32 75 2 93 84 133 142 70z m5950 -436 c1 -203 1 -368 0 -368 -35 -7 -915 -77
-920 -73 -10 5 -11 797 -1 806 3 4 212 6 462 5 l456 -3 3 -367z m-4541 -193
c30 -21 45 -81 32 -127 -10 -39 -50 -78 -79 -78 -29 0 -69 39 -80 78 -26 98
54 178 127 127z m6388 -817 c-3 -18 -14 -95 -24 -171 -11 -76 -21 -140 -24
-143 -2 -3 -213 -20 -468 -39 -255 -19 -479 -38 -497 -41 -18 -3 -39 -15 -47
-27 -14 -22 -55 -266 -55 -327 0 -18 7 -33 18 -38 11 -6 150 1 387 20 412 32
477 32 525 -2 40 -28 69 -91 70 -147 0 -23 -20 -179 -44 -347 -34 -236 -50
-319 -69 -359 -50 -109 -129 -168 -254 -188 -91 -15 -1187 -97 -1191 -89 -3 7
45 340 50 346 2 2 215 19 473 38 259 20 485 39 504 43 57 13 69 41 93 220 24
183 22 193 -41 193 -20 0 -202 -12 -406 -26 -208 -16 -387 -24 -408 -20 -74
14 -127 88 -127 178 0 47 77 573 91 623 38 135 118 208 255 235 32 6 309 31
614 55 305 23 561 43 568 44 9 1 11 -8 7 -31z m-1832 -158 c49 -33 77 -92 77
-162 0 -64 -55 -453 -72 -510 -20 -69 -92 -136 -168 -158 -23 -7 -21 -8 17
-15 59 -10 102 -40 120 -83 15 -35 14 -51 -21 -307 -47 -339 -70 -408 -155
-482 -33 -29 -116 -60 -178 -68 -82 -10 -1207 -94 -1211 -91 -4 4 184 1345
189 1350 4 4 392 34 396 31 2 -1 -6 -66 -17 -145 -11 -79 -19 -144 -17 -145 8
-7 594 46 617 55 37 15 46 40 69 204 21 149 18 180 -21 189 -13 3 -243 -11
-513 -32 -269 -21 -492 -37 -494 -35 -2 2 7 81 20 176 l24 173 525 42 c301 23
579 40 651 40 116 -2 128 -4 162 -27z m-1618 -255 c-14 -98 -26 -179 -28 -181
-1 -1 -190 -16 -420 -33 -229 -18 -430 -37 -446 -42 -15 -6 -34 -22 -41 -37
-16 -36 -152 -981 -145 -1009 3 -14 16 -25 33 -30 15 -3 216 8 446 25 231 17
421 30 423 28 3 -3 -47 -359 -50 -363 -8 -8 -1090 -82 -1124 -77 -49 7 -96 36
-127 77 -41 55 -35 137 58 802 47 336 93 639 101 674 31 127 92 203 191 241
51 19 131 28 604 64 300 23 546 42 547 41 2 -1 -8 -82 -22 -180z m-2620 -2
c-35 -249 -259 -1838 -260 -1840 -1 -3 -369 -33 -371 -30 -5 4 269 1922 275
1929 7 7 200 24 302 27 l66 1 -12 -87z m-4825 -281 c0 -11 -88 -626 -96 -672
l-6 -34 48 52 c59 66 104 90 196 102 148 19 650 52 693 45 82 -12 125 -71 125
-170 0 -38 -156 -1165 -162 -1170 -5 -5 -358 -28 -362 -24 -2 2 27 220 65 484
37 264 68 490 68 503 1 42 -24 44 -352 18 -254 -19 -311 -26 -327 -41 -22 -20
-22 -18 -101 -585 -33 -239 -61 -435 -62 -436 -3 -4 -362 -31 -365 -28 -4 2
267 1926 271 1931 2 1 79 9 172 16 94 8 176 15 183 16 6 0 12 -3 12 -7z m5751
-159 c-17 -21 -138 -150 -270 -288 -131 -137 -238 -251 -236 -253 1 -1 74 3
162 9 l161 12 48 -24 c61 -30 94 -88 94 -164 1 -56 -70 -596 -79 -607 -5 -5
-363 -39 -367 -34 -1 0 14 111 33 246 19 134 31 255 28 268 -3 12 -16 27 -29
32 -14 5 -128 0 -300 -12 -152 -12 -278 -19 -281 -16 -3 2 1 34 8 70 l12 65
324 352 c178 193 329 351 335 352 6 0 79 6 161 13 83 7 167 14 188 15 l39 1
-31 -37z m-1641 -255 c-12 -84 -24 -156 -28 -159 -4 -3 -173 -18 -377 -33
-203 -15 -383 -29 -398 -32 -15 -3 -34 -15 -42 -27 -12 -20 -95 -560 -95 -622
0 -14 8 -29 18 -34 12 -6 147 0 406 20 214 17 389 29 391 27 3 -4 -42 -329
-47 -333 -5 -5 -938 -75 -998 -75 -112 0 -165 56 -163 169 1 83 119 918 139
990 29 103 77 155 169 185 55 18 1038 97 1043 84 2 -4 -6 -76 -18 -160z
m-1539 17 c36 -19 68 -83 69 -135 0 -30 -159 -1181 -164 -1187 -1 -1 -279 -23
-617 -49 -554 -42 -620 -46 -660 -33 -62 20 -89 63 -89 144 0 65 42 394 61
480 25 108 81 174 165 194 43 9 658 61 732 61 l29 0 -15 -107 c-7 -60 -17
-111 -20 -115 -4 -3 -106 -14 -227 -22 -289 -21 -303 -23 -315 -46 -6 -11 -17
-68 -25 -127 -14 -93 -14 -109 -1 -121 13 -13 54 -12 331 9 173 13 320 26 324
29 10 6 101 622 101 683 0 30 -5 39 -22 46 -14 5 -207 -6 -481 -27 -251 -19
-460 -32 -463 -29 -7 7 27 262 37 278 8 14 1064 100 1156 94 34 -2 76 -11 94
-20z"/>
<path d="M10950 7276 l-265 -21 -32 -220 c-17 -121 -30 -221 -29 -223 9 -8
614 46 634 57 13 7 27 23 32 37 13 34 50 277 50 330 0 73 12 72 -390 40z"/>
<path d="M8615 5630 c-2387 -197 -4656 -384 -5043 -416 l-702 -58 2 -354 3
-354 2525 -1507 c1389 -828 2530 -1509 2535 -1513 6 -4 1151 674 2545 1506
l2535 1512 3 772 2 772 -32 -1 c-18 -1 -1986 -162 -4373 -359z m-1079 -635
c27 -21 28 -21 66 -2 26 13 69 21 129 25 l89 5 -2 -214 -3 -214 -140 0 -140 0
-5 83 c-7 110 -9 112 -160 112 -77 0 -120 -4 -128 -12 -8 -8 -12 -57 -12 -155
l0 -142 43 19 c36 17 65 20 217 20 148 0 181 -3 215 -19 51 -23 102 -81 110
-123 3 -18 5 -132 3 -254 -3 -214 -4 -222 -27 -256 -13 -19 -40 -46 -59 -59
-35 -24 -38 -24 -331 -27 -190 -2 -309 1 -332 7 -47 14 -105 78 -119 131 -7
27 -10 189 -8 503 l3 462 23 37 c25 41 60 69 107 86 19 7 103 11 232 9 186 -2
204 -4 229 -22z m1567 14 c51 -14 102 -61 122 -112 14 -37 15 -101 13 -518
l-3 -476 -29 -41 c-16 -24 -46 -50 -71 -62 -41 -20 -57 -21 -342 -18 l-300 3
-40 27 c-24 16 -49 44 -62 70 -20 43 -21 56 -21 517 0 517 -1 508 59 565 53
51 83 55 371 56 156 0 281 -4 303 -11z m-2513 -464 l0 -45 -1730 0 -1730 0
-40 25 c-25 16 -40 33 -40 45 0 20 10 20 1770 20 l1770 0 0 -45z m6248 13 c-3
-7 -29 -27 -59 -45 l-54 -33 -1587 0 -1588 0 0 45 0 45 1646 0 c1301 0 1645
-3 1642 -12z m-4610 -665 l3 -113 -136 0 -135 0 0 115 0 116 133 -3 132 -3 3
-112z"/>
<path d="M7284 4299 c-51 -15 -55 -25 -52 -160 l3 -124 145 0 145 0 3 134 c2
90 -1 138 -9 147 -13 16 -183 18 -235 3z"/>
<path d="M8682 4782 c-9 -7 -12 -91 -10 -388 l3 -379 130 0 130 0 3 379 c2
297 -1 381 -10 388 -7 4 -62 8 -123 8 -60 0 -116 -4 -123 -8z"/>
</g>
</svg>
