<?xml version="1.0" standalone="no"?>
<!DOCTYPE svg PUBLIC "-//W3C//DTD SVG 1.1//EN" "http://www.w3.org/Graphics/SVG/1.1/DTD/svg11.dtd" >
<svg xmlns="http://www.w3.org/2000/svg" xmlns:xlink="http://www.w3.org/1999/xlink" version="1.1">
<metadata>
Created by FontForge 20200427 at Tue Sep  9 20:28:36 2014
 By www
Copyright (c) 2010 Typodermic Fonts. Languages by Chikako Larabie. This font is not freely distributable. Visit typodermic.com for more info.
</metadata>
<defs>
<font id="HemiHeadW00-Bold" horiz-adv-x="675" >
  <font-face 
    font-family="HemiHeadW00-Bold"
    font-weight="400"
    font-stretch="normal"
    units-per-em="1000"
    panose-1="2 11 7 3 4 2 2 8 2 4"
    ascent="800"
    descent="-200"
    x-height="506"
    cap-height="677"
    bbox="-147 -256 1140 944"
    underline-thickness="50"
    underline-position="-175"
    unicode-range="U+0017-FB02"
  />
<missing-glyph horiz-adv-x="934" 
d="M45 -256v1200h849v-1200h-849zM829 511q5 17 7.5 31.5t2.5 28.5q0 48 -26.5 79t-93.5 49l-405 107q-36 10 -67 10q-50 0 -80 -28t-45 -85l-31 -118l252 -68l9 36q6 27 29 27q4 0 14 -2l131 -35q25 -7 25 -27v-7.5t-2 -8.5l-18 -69q-6 -22 -23 -22q-2 0 -12 2l-108 29
q-13 2 -24.5 4.5t-22.5 2.5q-43 0 -69 -25t-38 -70l-38 -140l230 -62l15 54q3 10 8 16t14 6q8 0 13 -1l137 -36q22 -6 43 -6q48 0 75.5 30.5t40.5 79.5zM406 74l-232 63l-51 -190l233 -61z" />
    <glyph glyph-name="copyright" unicode="&#x28;C&#x29;" horiz-adv-x="684" 
d="M189 0q-79 0 -112.5 32t-33.5 109v395q0 77 33.5 109t112.5 32h304q78 0 112 -32t34 -109v-395q0 -77 -34 -109t-112 -32h-304zM550 547q0 30 -12.5 42t-38.5 12h-315q-27 0 -39.5 -12t-12.5 -42v-417q0 -30 12.5 -42.5t39.5 -12.5h315q26 0 38.5 12.5t12.5 42.5v417z
M300 209q-31 0 -44.5 14t-13.5 43v154q0 29 13.5 43t44.5 14h132v-73h-88q-17 0 -17 -19v-83q0 -17 17 -17h89v-76h-133z" />
    <glyph glyph-name="registered" unicode="&#x28;R&#x29;" horiz-adv-x="684" 
d="M189 0q-79 0 -112.5 32t-33.5 109v395q0 77 33.5 109t112.5 32h304q78 0 112 -32t34 -109v-395q0 -77 -34 -109t-112 -32h-304zM550 547q0 30 -12.5 42t-38.5 12h-315q-27 0 -39.5 -12t-12.5 -42v-417q0 -30 12.5 -42.5t39.5 -12.5h315q26 0 38.5 12.5t12.5 42.5v417z
M383 209v71q0 7 -4 10.5t-16 3.5h-67v-85h-77v176h77v-31h62q13 0 16.5 4.5t3.5 12.5v27q0 16 -15 16h-144v63h189q25 0 35.5 -11.5t10.5 -33.5v-59q0 -23 -9.5 -32.5t-23.5 -11.5q17 -2 27.5 -9.5t10.5 -24.5v-86h-76z" />
    <glyph glyph-name="uni2117" unicode="&#x28;P&#x29;" horiz-adv-x="684" 
d="M189 0q-79 0 -112.5 32t-33.5 109v395q0 77 33.5 109t112.5 32h304q78 0 111.5 -32t33.5 -109v-395q0 -77 -33.5 -109t-111.5 -32h-304zM549 546q0 30 -12.5 43t-38.5 13h-315q-26 0 -39 -13t-13 -43v-416q0 -31 13 -43.5t39 -12.5h315q26 0 38.5 12.5t12.5 43.5v416z
M303 269v-64h-76v166h76v-39h66q9 0 12 3.5t3 12.5v50q0 8 -3 12.5t-12 4.5h-142v62h185q27 0 37 -11.5t10 -35.5v-114q0 -24 -10 -35.5t-37 -11.5h-109z" />
    <glyph glyph-name=".notdef" horiz-adv-x="934" 
d="M45 -256v1200h849v-1200h-849zM829 511q5 17 7.5 31.5t2.5 28.5q0 48 -26.5 79t-93.5 49l-405 107q-36 10 -67 10q-50 0 -80 -28t-45 -85l-31 -118l252 -68l9 36q6 27 29 27q4 0 14 -2l131 -35q25 -7 25 -27v-7.5t-2 -8.5l-18 -69q-6 -22 -23 -22q-2 0 -12 2l-108 29
q-13 2 -24.5 4.5t-22.5 2.5q-43 0 -69 -25t-38 -70l-38 -140l230 -62l15 54q3 10 8 16t14 6q8 0 13 -1l137 -36q22 -6 43 -6q48 0 75.5 30.5t40.5 79.5zM406 74l-232 63l-51 -190l233 -61z" />
    <glyph glyph-name=".null" horiz-adv-x="0" 
 />
    <glyph glyph-name="nonmarkingreturn" horiz-adv-x="333" 
 />
    <glyph glyph-name="glyph405" horiz-adv-x="230" 
 />
    <glyph glyph-name="glyph405" horiz-adv-x="230" 
 />
    <glyph glyph-name="uni0017" horiz-adv-x="276" 
 />
    <glyph glyph-name="space" unicode=" " horiz-adv-x="276" 
 />
    <glyph glyph-name="exclam" unicode="!" horiz-adv-x="260" 
d="M66 0v151h128v-151h-128zM66 211v466h128v-466h-128z" />
    <glyph glyph-name="quotedbl" unicode="&#x22;" horiz-adv-x="397" 
d="M55 409v309h101v-309h-101zM240 409v309h101v-309h-101z" />
    <glyph glyph-name="numbersign" unicode="#" horiz-adv-x="538" 
d="M324 0v184h-111v-184h-82v184h-98v72h98v165h-98v72h98v184h82v-184h111v184h82v-184h97v-72h-97v-165h97v-72h-97v-184h-82zM324 421h-111v-165h111v165z" />
    <glyph glyph-name="dollar" unicode="$" horiz-adv-x="533" 
d="M238 0v93h-183v99h275q21 0 27.5 6.5t6.5 23.5v67q0 26 -25 26h-205q-42 0 -60.5 19.5t-18.5 52.5v124q0 45 20.5 66.5t73.5 21.5h89v78h99v-78h143v-90h-277q-30 0 -30 -29v-59q0 -14 5.5 -20.5t22.5 -6.5h205q42 0 60 -19.5t18 -51.5v-142q0 -45 -20.5 -66.5
t-72.5 -21.5h-54v-93h-99z" />
    <glyph glyph-name="percent" unicode="%" horiz-adv-x="780" 
d="M106 349q-33 0 -46 14.5t-13 44.5v220q0 30 13 44.5t46 14.5h161q33 0 46 -14.5t13 -44.5v-220q0 -30 -13 -44.5t-46 -14.5h-161zM238 591q0 17 -17 17h-71q-15 0 -15 -16v-146q0 -15 15 -15h71q17 0 17 15v145zM147 0l408 677h80l-408 -677h-80zM514 -10q-33 0 -46 14.5
t-13 44.5v220q0 30 13 44.5t46 14.5h161q33 0 46 -14.5t13 -44.5v-220q0 -30 -13 -44.5t-46 -14.5h-161zM646 232q0 17 -17 17h-71q-15 0 -15 -16v-146q0 -15 15 -15h71q17 0 17 15v145z" />
    <glyph glyph-name="ampersand" unicode="&#x26;" horiz-adv-x="667" 
d="M546 0q-49 0 -81 9.5t-44 36.5q-10 -26 -33.5 -36t-54.5 -10h-168q-63 0 -88.5 28.5t-25.5 86.5v170q0 38 22.5 54.5t57.5 19.5q-35 4 -55.5 23.5t-20.5 61.5v118q0 58 27.5 86.5t90.5 28.5h321v-118h-266q-19 0 -26 -8.5t-7 -30.5v-93q0 -18 6.5 -24.5t25.5 -6.5h166v71
h120v-71h129v-102h-129v-128q0 -23 7.5 -30t30.5 -7h85v-129h-90zM393 294h-166q-19 0 -26 -7.5t-7 -25.5v-93q0 -22 7 -30.5t27 -8.5h165v165z" />
    <glyph glyph-name="quotesingle" unicode="'" horiz-adv-x="212" 
d="M55 409v309h101v-309h-101z" />
    <glyph glyph-name="parenleft" unicode="(" horiz-adv-x="379" 
d="M344 -145q-58 1 -103.5 15.5t-77.5 43.5t-49 75t-17 111v473q0 65 17 111t49 75.5t77.5 43.5t103.5 16v-75q-41 -3 -71 -13t-49 -30t-28 -51t-9 -77v-473q0 -46 9 -77t28 -50.5t49 -29.5t71 -13v-75z" />
    <glyph glyph-name="parenright" unicode=")" horiz-adv-x="380" 
d="M34 -70q41 3 71 13t49 29.5t28 50.5t9 77v473q0 46 -9 77t-28 51t-49 30t-71 13v75q58 -2 104 -16t78 -44t48.5 -77t16.5 -113v-465q0 -66 -16.5 -112.5t-48.5 -76.5t-78 -44.5t-104 -15.5v75z" />
    <glyph glyph-name="asterisk" unicode="*" horiz-adv-x="539" 
d="M385 246l-115 167l-115 -168l-62 47l123 159l-194 57l24 75l191 -69l-7 203h78l-6 -202l191 68l24 -74l-193 -57l124 -160z" />
    <glyph glyph-name="plus" unicode="+" horiz-adv-x="632" 
d="M272 88v218h-217v87h217v217h88v-217h217v-87h-217v-218h-88z" />
    <glyph glyph-name="comma" unicode="," horiz-adv-x="259" 
d="M31 -98l43 249h128l-59 -249h-112z" />
    <glyph glyph-name="hyphen" unicode="-" horiz-adv-x="385" 
d="M31 302v84h322v-84h-322z" />
    <glyph glyph-name="period" unicode="." horiz-adv-x="239" 
d="M56 0v151h128v-151h-128z" />
    <glyph glyph-name="slash" unicode="/" horiz-adv-x="413" 
d="M32 -29l257 747h92l-257 -747h-92z" />
    <glyph glyph-name="zero" unicode="0" horiz-adv-x="650" 
d="M166 0q-65 0 -90 29t-25 89v441q0 60 25 89t90 29h318q65 0 90 -29t25 -89v-441q0 -60 -25 -89t-90 -29h-318zM456 506q0 23 -8.5 31.5t-32.5 8.5h-187q-20 0 -27 -8.5t-7 -30.5v-338q0 -18 7 -26t27 -8h187q24 0 32.5 8t8.5 26v337z" />
    <glyph glyph-name="one" unicode="1" horiz-adv-x="311" 
d="M114 0v548h-92v129h235v-677h-143z" />
    <glyph glyph-name="two" unicode="2" horiz-adv-x="649" 
d="M56 0v260q0 34 6 58.5t20 40t38 22.5t59 7h241q21 0 28 9t7 30v90q0 22 -7 30.5t-30 8.5h-191q-21 0 -28.5 -8t-7.5 -31v-49h-137v94q0 58 27.5 86.5t90.5 28.5h308q65 0 90 -29t25 -89v-172q0 -55 -24 -82.5t-82 -27.5h-256q-20 0 -27 -8.5t-7 -35.5v-106h396v-127h-539
z" />
    <glyph glyph-name="three" unicode="3" horiz-adv-x="632" 
d="M154 0q-64 0 -89.5 28.5t-25.5 86.5v105h139v-59q0 -20 8 -28t28 -8h191q20 0 28 8t8 28v106q0 17 -8 23t-28 6h-148v100h148q20 0 27 7t7 24v94q0 20 -7.5 27.5t-27.5 7.5h-189q-20 0 -27.5 -7.5t-7.5 -27.5v-53h-137v94q0 58 27.5 86.5t91.5 28.5h295q65 0 92 -28.5
t27 -86.5v-127q0 -42 -20.5 -61.5t-55.5 -23.5q35 -3 57.5 -19.5t22.5 -54.5v-161q0 -58 -25 -86.5t-90 -28.5h-311z" />
    <glyph glyph-name="four" unicode="4" horiz-adv-x="621" 
d="M368 0v131h-336v117l276 429h192v-430h90v-116h-90v-131h-132zM368 552l-201 -305h201v305z" />
    <glyph glyph-name="five" unicode="5" horiz-adv-x="650" 
d="M170 0q-63 0 -88.5 28.5t-25.5 86.5v105h140v-61q0 -20 5.5 -27t25.5 -7h190q23 0 29.5 7t6.5 27v113q0 19 -6.5 26t-24.5 7h-366v372h521v-129h-378v-131h302q50 0 72.5 -25.5t22.5 -70.5v-203q0 -60 -25 -89t-90 -29h-311z" />
    <glyph glyph-name="six" unicode="6" horiz-adv-x="642" 
d="M166 0q-65 0 -90 29t-25 89v441q0 60 25 89t90 29h306q64 0 91 -28.5t27 -86.5v-94h-136v49q0 23 -8 30.5t-32 7.5h-191q-21 0 -28 -7.5t-7 -30.5v-118h308q50 0 72 -25.5t22 -70.5v-185q0 -60 -24.5 -89t-90.5 -29h-309zM457 262q0 18 -7 25.5t-27 7.5h-235v-125
q0 -26 7.5 -35t27.5 -9h198q22 0 29 9t7 35v92z" />
    <glyph glyph-name="seven" unicode="7" horiz-adv-x="550" 
d="M80 0l277 548h-329v129h485v-102l-277 -575h-156z" />
    <glyph glyph-name="eight" unicode="8" horiz-adv-x="644" 
d="M166 0q-64 0 -89.5 28.5t-25.5 86.5v161q0 38 22.5 54.5t57.5 19.5q-35 4 -55.5 23.5t-20.5 61.5v127q0 58 27.5 86.5t91.5 28.5h295q65 0 92 -28.5t27 -86.5v-127q0 -42 -20.5 -61.5t-55.5 -23.5q35 -3 57.5 -19.5t22.5 -54.5v-161q0 -58 -25 -86.5t-90 -28.5h-311z
M451 521q0 20 -7.5 27t-27.5 7h-189q-20 0 -27.5 -7t-7.5 -27v-96q0 -17 7 -24t27 -7h191q20 0 27 7t7 24v96zM453 268q0 17 -8 23.5t-28 6.5h-191q-20 0 -28 -6.5t-8 -23.5v-107q0 -20 8 -28t28 -8h191q20 0 28 8t8 28v107z" />
    <glyph glyph-name="nine" unicode="9" horiz-adv-x="648" 
d="M171 0q-64 0 -90.5 28.5t-26.5 86.5v102h138v-54q0 -23 7.5 -30.5t32.5 -7.5h190q21 0 28 7.5t7 30.5v113h-308q-50 0 -72.5 25.5t-22.5 70.5v187q0 60 25 89t90 29h310q65 0 90 -29t25 -89v-441q0 -60 -25 -89t-90 -29h-308zM457 508q0 26 -7.5 35t-27.5 9h-199
q-21 0 -28 -9t-7 -35v-95q0 -18 7 -25.5t27 -7.5h235v128z" />
    <glyph glyph-name="colon" unicode=":" horiz-adv-x="252" 
d="M62 0v151h128v-151h-128zM62 356v151h128v-151h-128z" />
    <glyph glyph-name="semicolon" unicode=";" horiz-adv-x="263" 
d="M71 356v151h128v-151h-128zM28 -98l43 249h128l-59 -249h-112z" />
    <glyph glyph-name="less" unicode="&#x3c;" horiz-adv-x="632" 
d="M55 299v64l522 224v-95l-380 -161l380 -161v-94z" />
    <glyph glyph-name="equal" unicode="=" horiz-adv-x="632" 
d="M55 187v87h522v-87h-522zM55 424v88h522v-88h-522z" />
    <glyph glyph-name="greater" unicode="&#x3e;" horiz-adv-x="632" 
d="M55 76v94l380 161l-380 161v95l522 -224v-64z" />
    <glyph glyph-name="question" unicode="?" horiz-adv-x="627" 
d="M368 287q-15 0 -20.5 -5.5t-5.5 -22.5v-48h-126v93q0 42 21.5 65t67.5 23h107q23 0 30 7t7 29v87q0 23 -8 31.5t-31 8.5h-195q-20 0 -27.5 -8.5t-7.5 -29.5v-49h-137v94q0 58 27.5 86.5t90.5 28.5h312q66 0 91 -29t25 -89v-158q0 -57 -22 -85.5t-79 -28.5h-120zM215 0
v151h128v-151h-128z" />
    <glyph glyph-name="at" unicode="@" horiz-adv-x="618" 
d="M138 -171q-50 0 -68.5 21.5t-18.5 69.5v588q0 48 18.5 69.5t68.5 21.5h342q49 0 67.5 -21.5t18.5 -69.5v-377q0 -48 -18 -69.5t-68 -21.5h-154q-50 0 -69 21.5t-19 69.5v186q0 49 21.5 70t66.5 21h101v-79h-73q-15 0 -21 -6.5t-6 -23.5v-147q0 -20 5.5 -26.5t20.5 -6.5
h95q18 0 23.5 7t5.5 25v337q0 17 -5.5 24t-20.5 7h-278q-17 0 -22 -7t-5 -24v-527q0 -19 5.5 -25.5t23.5 -6.5h382v-100h-419z" />
    <glyph glyph-name="A" unicode="A" horiz-adv-x="636" 
d="M466 0l-29 105h-244l-30 -105h-147l209 677h199l195 -677h-153zM319 541l-96 -324h185z" />
    <glyph glyph-name="B" unicode="B" horiz-adv-x="664" 
d="M56 0v503h152v-109h212q22 0 29 7t7 24v82q0 23 -7.5 31t-29.5 8h-363v131h431q64 0 90.5 -28.5t26.5 -86.5v-127q0 -42 -18.5 -61.5t-53.5 -23.5q35 -3 57.5 -19.5t22.5 -54.5v-161q0 -58 -25.5 -86.5t-89.5 -28.5h-441zM461 261q0 23 -8 30t-31 7h-214v-165h214
q23 0 31 7.5t8 31.5v89z" />
    <glyph glyph-name="C" unicode="C" horiz-adv-x="586" 
d="M165 0q-64 0 -89.5 29t-25.5 89v441q0 60 25.5 89t89.5 29h381v-135h-306q-24 0 -31 -7.5t-7 -30.5v-330q0 -20 7 -28.5t31 -8.5h308v-137h-383z" />
    <glyph glyph-name="D" unicode="D" horiz-adv-x="676" 
d="M56 0v494h150v-362h213q26 0 40 16.5t14 48.5v282q0 65 -54 65h-363v133h391q90 0 134 -44t44 -129v-331q0 -85 -44 -129t-134 -44h-391z" />
    <glyph glyph-name="E" unicode="E" horiz-adv-x="609" 
d="M51 0v495h157v-110h249v-108h-249v-142h345v-135h-502zM51 545v132h502v-132h-502z" />
    <glyph glyph-name="F" unicode="F" horiz-adv-x="593" 
d="M212 269v-269h-157v494h157v-112h255v-113h-255zM55 544v133h501v-133h-501z" />
    <glyph glyph-name="G" unicode="G" horiz-adv-x="645" 
d="M166 0q-65 0 -90 29t-25 89v441q0 60 25 89t90 29h418v-135h-352q-20 0 -26 -7t-6 -30v-345q0 -17 6.5 -23.5t25.5 -6.5h217v154h-134v109h276v-393h-425z" />
    <glyph glyph-name="H" unicode="H" horiz-adv-x="681" 
d="M624 0h-152v280h-265v-280h-152v677h152v-270h265v270h152v-677z" />
    <glyph glyph-name="I" unicode="I" horiz-adv-x="270" 
d="M58 0v677h152v-677h-152z" />
    <glyph glyph-name="J" unicode="J" horiz-adv-x="545" 
d="M28 0v137h273q23 0 29.5 7.5t6.5 28.5v372h-118v132h270v-559q0 -60 -25 -89t-89 -29h-347z" />
    <glyph glyph-name="K" unicode="K" horiz-adv-x="706" 
d="M500 0v241q0 29 -8.5 38t-37.5 9h-222v69l244 320h166l-219 -277h108q125 0 125 -138v-262h-156zM55 0v677h152v-677h-152z" />
    <glyph glyph-name="L" unicode="L" horiz-adv-x="539" 
d="M508 0h-454v677h152v-540h302v-137z" />
    <glyph glyph-name="M" unicode="M" horiz-adv-x="810" 
d="M630 0v411l-164 -411h-119l-168 411v-411h-126v677h164l188 -471l192 471h158v-677h-125z" />
    <glyph glyph-name="N" unicode="N" horiz-adv-x="703" 
d="M545 0l-350 444v-444h-141v677h143l307 -404v404h142v-677h-101z" />
    <glyph glyph-name="O" unicode="O" horiz-adv-x="668" 
d="M166 0q-65 0 -90 29t-25 89v441q0 60 25 89t90 29h337q64 0 89.5 -29t25.5 -89v-441q0 -60 -25.5 -89t-89.5 -29h-337zM466 506q0 23 -8.5 31t-32.5 8h-189q-20 0 -27 -8t-7 -31v-337q0 -18 7 -26t27 -8h189q24 0 32.5 8t8.5 26v337z" />
    <glyph glyph-name="P" unicode="P" horiz-adv-x="635" 
d="M208 218v-218h-152v495h152v-154h209q19 0 25 8t6 31v133q0 19 -6 25.5t-25 6.5h-361v132h424q65 0 90 -29t25 -89v-223q0 -60 -25 -89t-90 -29h-272z" />
    <glyph glyph-name="Q" unicode="Q" horiz-adv-x="673" 
d="M467 -96v604q0 21 -7.5 28.5t-30.5 7.5h-197q-17 0 -23.5 -7.5t-6.5 -28.5v-302q0 -18 6.5 -25t23.5 -7h185v-134h-251q-65 0 -90 29t-25 89v401q0 60 25 89t90 29h337q64 0 89.5 -29t25.5 -89v-655h-151z" />
    <glyph glyph-name="R" unicode="R" horiz-adv-x="663" 
d="M459 0v221q0 18 -6.5 24.5t-26.5 6.5h-219v-252h-152v495h152v-131h208q22 0 28.5 7t6.5 28v110q0 22 -7 29t-29 7h-359v132h430q64 0 90.5 -28.5t26.5 -86.5v-147q0 -52 -24 -73.5t-59 -25.5q19 -1 35.5 -5.5t29 -13.5t20 -24.5t7.5 -37.5v-235h-152z" />
    <glyph glyph-name="S" unicode="S" horiz-adv-x="646" 
d="M52 0v132h361q19 0 25.5 7t6.5 26v94q0 17 -6.5 23t-24.5 6h-267q-50 0 -72.5 25.5t-22.5 70.5v175q0 60 25 89t91 29h421v-129h-359q-16 0 -21.5 -7t-5.5 -25v-89q0 -17 5.5 -22.5t20.5 -5.5h271q50 0 73 -25.5t23 -70.5v-185q0 -60 -25 -89t-90 -29h-429z" />
    <glyph glyph-name="T" unicode="T" horiz-adv-x="533" 
d="M341 0h-152v544h-164v133h481v-133h-165v-544z" />
    <glyph glyph-name="U" unicode="U" 
d="M169 0q-65 0 -90.5 29t-25.5 89v559h152v-506q0 -23 7 -29.5t28 -6.5h200q20 0 27.5 6.5t7.5 29.5v506h146v-559q0 -60 -25.5 -89t-89.5 -29h-337z" />
    <glyph glyph-name="V" unicode="V" horiz-adv-x="636" 
d="M225 0l-209 677h157l143 -494l152 494h151l-223 -677h-171z" />
    <glyph glyph-name="W" unicode="W" horiz-adv-x="998" 
d="M626 0l-127 483l-144 -483h-170l-169 677h156l116 -496l140 496h152l126 -495l126 495h149l-184 -677h-171z" />
    <glyph glyph-name="X" unicode="X" horiz-adv-x="662" 
d="M483 0l-154 274l-156 -274h-162l216 360l-199 317h165l147 -250l147 250h157l-202 -329l209 -348h-168z" />
    <glyph glyph-name="Y" unicode="Y" horiz-adv-x="617" 
d="M232 0v279l-219 398h159l139 -267l140 267h152l-219 -398v-279h-152z" />
    <glyph glyph-name="Z" unicode="Z" horiz-adv-x="602" 
d="M49 0v123l321 421h-314v133h497v-117l-313 -425h313v-135h-504z" />
    <glyph glyph-name="bracketleft" unicode="[" horiz-adv-x="310" 
d="M75 -145v964h200v-72h-110v-818h110v-74h-200z" />
    <glyph glyph-name="backslash" unicode="\" horiz-adv-x="413" 
d="M289 -29l-257 747h92l257 -747h-92z" />
    <glyph glyph-name="bracketright" unicode="]" horiz-adv-x="310" 
d="M35 -145v74h112v818h-112v72h200v-964h-200z" />
    <glyph glyph-name="asciicircum" unicode="^" horiz-adv-x="491" 
d="M351 284l-106 254l-107 -254h-95l170 393h64l169 -393h-95z" />
    <glyph glyph-name="underscore" unicode="_" horiz-adv-x="614" 
d="M8 -160v83h599v-83h-599z" />
    <glyph glyph-name="grave" unicode="`" horiz-adv-x="372" 
d="M228 569l-173 204h113l149 -204h-89z" />
    <glyph glyph-name="a" unicode="a" horiz-adv-x="630" 
d="M138 0q-49 0 -68 23.5t-19 71.5v120q0 57 17.5 77t65.5 20h257v-86h-184q-14 0 -18.5 -5t-4.5 -21v-53q0 -15 4.5 -21t18.5 -6h234v248q0 14 -6 21t-23 7h-343v110h414q56 0 76 -24t20 -75v-407h-441z" />
    <glyph glyph-name="b" unicode="b" horiz-adv-x="626" 
d="M52 0v718h140v-594h218q16 0 21 6t5 22v205q0 17 -5.5 22.5t-20.5 5.5h-168v121h238q48 0 72.5 -24t24.5 -75v-308q0 -51 -21 -75t-76 -24h-428z" />
    <glyph glyph-name="c" unicode="c" horiz-adv-x="542" 
d="M144 0q-54 0 -74.5 24t-20.5 75v308q0 51 20.5 75t74.5 24h357v-123h-285q-17 0 -22 -5t-5 -22v-202q0 -16 5 -22t22 -6h285v-126h-357z" />
    <glyph glyph-name="d" unicode="d" horiz-adv-x="628" 
d="M144 0q-54 0 -74.5 24t-20.5 75v308q0 51 23.5 75t71.5 24h239v-121h-167q-16 0 -21.5 -5.5t-5.5 -22.5v-205q0 -16 5 -22t22 -6h217v594h141v-718h-430z" />
    <glyph glyph-name="e" unicode="e" horiz-adv-x="618" 
d="M140 0q-55 0 -75.5 24t-20.5 75v308q0 51 20.5 75t75.5 24h342q50 0 68.5 -23.5t18.5 -71.5v-199h-337v84h204v68q0 16 -5 21.5t-21 5.5h-201q-17 0 -22 -5.5t-5 -22.5v-218q0 -18 5 -24t22 -6h341v-115h-410z" />
    <glyph glyph-name="f" unicode="f" horiz-adv-x="347" 
d="M53 0v602q0 64 23 90t72 26h174v-109h-105q-14 0 -19 -6t-5 -20v-77h125v-110h-125v-396h-140z" />
    <glyph glyph-name="g" unicode="g" horiz-adv-x="613" 
d="M62 -212v121h338q17 0 22.5 6t5.5 23v447h-218q-17 0 -22 -6t-5 -22v-216q0 -15 5 -21t22 -6h168v-114h-240q-54 0 -74.5 24t-20.5 75v308q0 51 20.5 75t74.5 24h430v-619q0 -51 -20.5 -75t-75.5 -24h-410z" />
    <glyph glyph-name="h" unicode="h" horiz-adv-x="651" 
d="M459 0v357q0 17 -6 22.5t-23 5.5h-209q-15 0 -21 -5.5t-6 -22.5v-357h-140v718h140v-267q14 29 34.5 42t52.5 13h222q51 0 73 -22.5t22 -76.5v-407h-139z" />
    <glyph glyph-name="i" unicode="i" horiz-adv-x="253" 
d="M56 0v506h140v-506h-140zM56 566v152h141v-152h-141z" />
    <glyph glyph-name="j" unicode="j" horiz-adv-x="267" 
d="M-74 -212v121h115q16 0 21 6t5 20v571h140v-619q0 -51 -20.5 -75t-74.5 -24h-186zM66 566v152h141v-152h-141z" />
    <glyph glyph-name="k" unicode="k" horiz-adv-x="646" 
d="M53 0v718h141v-718h-141zM457 0v168q0 22 -7.5 31t-30.5 9h-200v51l211 247h154l-179 -203h97q95 0 95 -107v-196h-140z" />
    <glyph glyph-name="l" unicode="l" horiz-adv-x="248" 
d="M54 0v718h140v-718h-140z" />
    <glyph glyph-name="m" unicode="m" horiz-adv-x="936" 
d="M744 0v357q0 17 -6 22.5t-23 5.5h-150q-16 0 -22 -5.5t-6 -19.5v-360h-140v357q0 17 -5.5 22.5t-22.5 5.5h-151q-15 0 -21 -5.5t-6 -22.5v-357h-140v506h135v-55q25 55 87 55h169q38 0 59.5 -13t29.5 -42q16 29 36.5 42t52.5 13h169q50 0 72.5 -22.5t22.5 -76.5v-407
h-140z" />
    <glyph glyph-name="n" unicode="n" horiz-adv-x="649" 
d="M456 0v357q0 17 -6 22.5t-23 5.5h-209q-15 0 -21 -5.5t-6 -22.5v-357h-140v506h135v-55q25 55 87 55h227q51 0 73 -22.5t22 -76.5v-407h-139z" />
    <glyph glyph-name="o" unicode="o" horiz-adv-x="633" 
d="M144 0q-54 0 -74.5 24t-20.5 75v308q0 51 20.5 75t74.5 24h344q56 0 76 -24t20 -75v-308q0 -51 -20 -75t-76 -24h-344zM444 357q0 17 -6 22.5t-25 5.5h-198q-16 0 -21 -5.5t-5 -22.5v-206q0 -15 5 -21t21 -6h198q19 0 25 6t6 21v206z" />
    <glyph glyph-name="p" unicode="p" horiz-adv-x="624" 
d="M242 0v120h168q15 0 20.5 5.5t5.5 22.5v205q0 17 -5 23t-21 6h-218v-594h-140v718h428q55 0 76 -24t21 -75v-308q0 -52 -24.5 -75.5t-72.5 -23.5h-238z" />
    <glyph glyph-name="q" unicode="q" horiz-adv-x="626" 
d="M433 -212v594h-217q-17 0 -22 -6t-5 -23v-205q0 -17 5.5 -22.5t21.5 -5.5h167v-120h-239q-48 0 -71.5 23.5t-23.5 75.5v308q0 51 20.5 75t74.5 24h430v-718h-141z" />
    <glyph glyph-name="r" unicode="r" horiz-adv-x="451" 
d="M51 0v506h136v-55q13 29 33.5 42t53.5 13h147v-121h-202q-15 0 -21.5 -5.5t-6.5 -22.5v-357h-140z" />
    <glyph glyph-name="s" unicode="s" horiz-adv-x="621" 
d="M52 0v116h347q16 0 20.5 5t4.5 19v50q0 11 -4.5 16t-18.5 5h-271q-42 0 -60 19.5t-18 52.5v135q0 45 20 66.5t73 21.5h418v-113h-345q-16 0 -21.5 -6t-5.5 -21v-42q0 -13 5.5 -19t19.5 -6h274q42 0 60.5 -19.5t18.5 -51.5v-140q0 -45 -21 -66.5t-74 -21.5h-422z" />
    <glyph glyph-name="t" unicode="t" horiz-adv-x="342" 
d="M146 0q-54 0 -74.5 24t-20.5 75v548h140v-141h122v-110h-122v-259q0 -17 5.5 -22t20.5 -5h92v-110h-163z" />
    <glyph glyph-name="u" unicode="u" horiz-adv-x="640" 
d="M453 0v54q-13 -29 -34 -41.5t-53 -12.5h-220q-50 0 -72.5 22.5t-22.5 76.5v407h140v-357q0 -17 5.5 -23t22.5 -6h201q16 0 22 6t6 23v357h140v-506h-135z" />
    <glyph glyph-name="v" unicode="v" horiz-adv-x="603" 
d="M211 0l-197 506h151l136 -368l144 368h144l-210 -506h-168z" />
    <glyph glyph-name="w" unicode="w" horiz-adv-x="901" 
d="M553 0l-105 351l-118 -351h-174l-142 506h154l90 -362l113 362h165l104 -361l99 361h148l-157 -506h-177z" />
    <glyph glyph-name="x" unicode="x" horiz-adv-x="612" 
d="M432 0l-129 194l-132 -194h-162l185 270l-169 236h166l125 -181l123 181h158l-173 -245l179 -261h-171z" />
    <glyph glyph-name="y" unicode="y" horiz-adv-x="610" 
d="M61 -212v121h336q17 0 22.5 6t5.5 23v62h-288q-54 0 -74.5 24t-20.5 75v407h140v-363q0 -16 5.5 -22.5t22.5 -6.5h215v392h141v-619q0 -51 -21 -75t-76 -24h-408z" />
    <glyph glyph-name="z" unicode="z" horiz-adv-x="571" 
d="M47 0v111l289 277h-288v118h475v-100l-283 -286h283v-120h-476z" />
    <glyph glyph-name="braceleft" unicode="{" horiz-adv-x="364" 
d="M328 -145q-114 2 -168.5 53.5t-54.5 160.5v186q0 24 -11.5 38t-32.5 14h-14v59h14q21 0 32.5 15t11.5 38v186q0 109 54.5 160.5t168.5 53.5v-75q-69 -2 -101.5 -36.5t-32.5 -102.5v-186q0 -39 -12 -56.5t-37 -25.5q25 -7 37 -25.5t12 -56.5v-186q0 -68 32.5 -102.5
t101.5 -36.5v-75z" />
    <glyph glyph-name="bar" unicode="|" horiz-adv-x="245" 
d="M77 -145v964h90v-964h-90z" />
    <glyph glyph-name="braceright" unicode="}" horiz-adv-x="366" 
d="M35 -70q134 4 134 138v145q0 49 10.5 82t38.5 42q-29 8 -39 32t-10 70v165q0 136 -134 140v75q61 -1 104 -15.5t69 -43.5t38 -73t12 -103v-165q0 -24 11 -38.5t33 -14.5h14v-59h-14q-21 0 -32.5 -14t-11.5 -39v-165q0 -59 -12 -102.5t-38 -72.5t-69 -43.5t-104 -15.5v75z
" />
    <glyph glyph-name="asciitilde" unicode="~" horiz-adv-x="630" 
d="M574 315q-26 -20 -65 -29t-72 -9q-34 0 -64 8.5t-59 19t-57 19t-57 8.5q-35 0 -71 -10t-74 -34v96q13 10 29.5 17.5t35 12.5t37 7t34.5 2q33 0 63 -9t58.5 -19.5t57 -19t59.5 -8.5q35 0 71 10t74 34v-96z" />
    <glyph glyph-name="uni00A0" unicode="&#xa0;" horiz-adv-x="276" 
 />
    <glyph glyph-name="exclamdown" unicode="&#xa1;" horiz-adv-x="260" 
d="M194.004 677v-150.991h-127.992v150.991h127.992zM194.004 466.013v-465.972h-127.992v465.972h127.992z" />
    <glyph glyph-name="cent" unicode="&#xa2;" horiz-adv-x="492" 
d="M334 94v-94h-100v94h-88q-54 0 -75 24t-21 75v308q0 51 21 75t75 24h88v77h100v-77h113v-113h-242q-29 0 -29 -28v-218q0 -30 29 -30h242v-117h-113z" />
    <glyph glyph-name="sterling" unicode="&#xa3;" horiz-adv-x="631" 
d="M106 0v294h-67v92h67v192q0 51 20.5 75t74.5 24h312v-129h-233q-15 0 -20.5 -6t-5.5 -21v-135h220v-92h-220v-162h329v-132h-477z" />
    <glyph glyph-name="currency" unicode="&#xa4;" horiz-adv-x="560" 
d="M364 211h-172l-99 -102l-45 46l100 101v172l-100 99l45 47l99 -101h172l99 101l47 -47l-101 -99v-172l101 -101l-47 -46zM350 414h-143v-145h143v145z" />
    <glyph glyph-name="yen" unicode="&#xa5;" horiz-adv-x="576" 
d="M359 91v-91h-143v91h-199v69h199v67h-199v70h198v18l-199 362h143l131 -263l134 263h135l-200 -362v-18h200v-70h-200v-67h200v-69h-200z" />
    <glyph glyph-name="brokenbar" unicode="&#xa6;" horiz-adv-x="253" 
d="M75 428v391h101v-391h-101zM75 -145v391h101v-391h-101z" />
    <glyph glyph-name="section" unicode="&#xa7;" horiz-adv-x="597" 
d="M65 -256v105h331q18 0 24 6t6 26v119h-275q-54 0 -74.5 24t-20.5 75v479q0 51 20.5 75t74.5 24h386v-100h-338q-17 0 -22.5 -7t-5.5 -23v-117h274q54 0 75 -24t21 -75v-488q0 -51 -21 -75t-75 -24h-380zM426 305q0 14 -5.5 19t-21.5 5h-228v-195q0 -17 5 -23t23 -6h227
v200z" />
    <glyph glyph-name="dieresis" unicode="&#xa8;" horiz-adv-x="525" 
d="M343 566v152h126v-152h-126zM56 566v152h126v-152h-126z" />
    <glyph glyph-name="ordfeminine" unicode="&#xaa;" horiz-adv-x="406" 
d="M105 300q-28 0 -38.5 13t-10.5 39v67q0 32 9.5 43t37.5 11h129v-50h-78q-8 0 -10 -2.5t-2 -10.5v-18q0 -8 2 -10.5t10 -2.5h106v116q0 14 -13 14h-181v69h232q31 0 42 -13t11 -41v-224h-246z" />
    <glyph glyph-name="guillemotleft" unicode="&#xab;" horiz-adv-x="534" 
d="M30 257v120l204 168v-109l-153 -121l153 -125v-106zM297 257v120l204 168v-109l-153 -121l153 -125v-106z" />
    <glyph glyph-name="logicalnot" unicode="&#xac;" horiz-adv-x="632" 
d="M466 75v231h-418v115h533v-346h-115z" />
    <glyph glyph-name="macron" unicode="&#xaf;" horiz-adv-x="571" 
d="M55 634v89h461v-89h-461z" />
    <glyph glyph-name="degree" unicode="&#xb0;" horiz-adv-x="377" 
d="M112 461q-34 0 -47 14.5t-13 46.5v135q0 32 13 46.5t47 14.5h149q35 0 48.5 -14.5t13.5 -46.5v-135q0 -32 -13.5 -46.5t-48.5 -14.5h-149zM255 641q0 19 -19 19h-100q-18 0 -18 -19v-100q0 -19 18 -19h100q19 0 19 19v100z" />
    <glyph glyph-name="plusminus" unicode="&#xb1;" horiz-adv-x="632" 
d="M272 88v218h-217v87h217v217h88v-217h217v-87h-217v-218h-88zM53 -50v100h526v-100h-526z" />
    <glyph glyph-name="uni00B2" unicode="&#xb2;" horiz-adv-x="355" 
d="M41 349v132q0 35 13 50.5t49 15.5h111q14 0 14 15v40q0 9 -3 12.5t-12 3.5h-73q-16 0 -16 -16v-19h-84v47q0 29 14 43t46 14h156q33 0 46 -14.5t13 -44.5v-90q0 -28 -12.5 -41.5t-41.5 -13.5h-118q-14 0 -14 -17v-43h186v-74h-274z" />
    <glyph glyph-name="uni00B3" unicode="&#xb3;" horiz-adv-x="346" 
d="M90 349q-32 0 -45 14t-13 43v53h86v-23q0 -15 15 -15h73q15 0 15 15v46q0 12 -15 12h-63v54h63q15 0 15 13v42q0 15 -16 15h-71q-15 0 -15 -15v-20h-85v47q0 29 14 43t46 14h151q32 0 46 -14t14 -43v-64q0 -21 -10.5 -30.5t-27.5 -11.5q17 -2 28.5 -10t11.5 -27v-81
q0 -29 -13 -43t-45 -14h-159z" />
    <glyph glyph-name="acute" unicode="&#xb4;" horiz-adv-x="372" 
d="M55 569l149 204h113l-173 -204h-89z" />
    <glyph glyph-name="mu" unicode="&#xb5;" horiz-adv-x="585" 
d="M54 -212v718h139v-383h174q15 0 21 7.5t6 24.5v351h136v-407q0 -51 -20 -75t-76 -24h-241v-212h-139z" />
    <glyph glyph-name="paragraph" unicode="&#xb6;" horiz-adv-x="725" 
d="M517 -171v761h-139v-761h-108v761h-96q-17 0 -22.5 -5.5t-5.5 -25.5v-164q0 -18 5.5 -24.5t22.5 -6.5h54v-92h-91q-52 0 -75.5 25.5t-23.5 77.5v199q0 53 22 78t79 25h556v-87h-71v-761h-107z" />
    <glyph glyph-name="periodcentered" unicode="&#xb7;" horiz-adv-x="239" 
d="M56 244v151h128v-151h-128z" />
    <glyph glyph-name="cedilla" unicode="&#xb8;" horiz-adv-x="252" 
d="M43 -256l41 196h113l-56 -196h-98z" />
    <glyph glyph-name="uni00B9" unicode="&#xb9;" horiz-adv-x="191" 
d="M63 349v262h-39v76h127v-338h-88z" />
    <glyph glyph-name="ordmasculine" unicode="&#xba;" horiz-adv-x="409" 
d="M108 300q-31 0 -42 13t-11 41v170q0 28 11 41t42 13h193q30 0 41.5 -13t11.5 -41v-170q0 -28 -11.5 -41t-41.5 -13h-193zM261 485q0 14 -14 14h-87q-12 0 -12 -14v-89q0 -14 12 -14h87q14 0 14 14v89z" />
    <glyph glyph-name="guillemotright" unicode="&#xbb;" horiz-adv-x="534" 
d="M30 84v109l153 120l-153 125v107l204 -174v-120zM297 84v109l153 120l-153 125v107l204 -174v-120z" />
    <glyph glyph-name="onequarter" unicode="&#xbc;" horiz-adv-x="659" 
d="M90 349v262h-39v76h127v-338h-88zM51 0l408 677h80l-408 -677h-80zM490 -10v62h-160v70l120 206h121v-206h42v-70h-42v-62h-81zM490 253l-80 -131h80v131z" />
    <glyph glyph-name="onehalf" unicode="&#xbd;" horiz-adv-x="692" 
d="M100 349v262h-39v76h127v-338h-88zM51 0l408 677h80l-408 -677h-80zM372 -10v132q0 35 13 50.5t49 15.5h111q14 0 14 15v40q0 9 -3 12.5t-12 3.5h-73q-16 0 -16 -16v-19h-84v47q0 29 14 43t46 14h156q33 0 46 -14.5t13 -44.5v-90q0 -28 -12.5 -41.5t-41.5 -13.5h-118
q-14 0 -14 -17v-43h186v-74h-274z" />
    <glyph glyph-name="threequarters" unicode="&#xbe;" horiz-adv-x="722" 
d="M105 349q-32 0 -45 14t-13 43v53h86v-23q0 -15 15 -15h73q15 0 15 15v46q0 12 -15 12h-63v54h63q15 0 15 13v42q0 15 -16 15h-71q-15 0 -15 -15v-20h-85v47q0 29 14 43t46 14h151q32 0 46 -14t14 -43v-64q0 -21 -10.5 -30.5t-27.5 -11.5q17 -2 28.5 -10t11.5 -27v-81
q0 -29 -13 -43t-45 -14h-159zM134 0l408 677h80l-408 -677h-80zM553 -10v62h-160v70l120 206h121v-206h42v-70h-42v-62h-81zM553 253l-80 -131h80v131z" />
    <glyph glyph-name="questiondown" unicode="&#xbf;" horiz-adv-x="627" 
d="M264.022 390.018q14.999 0 20.499 5.5q5.49902 5.49902 5.49902 22.498v47.9971h125.993v-92.9941q0 -41.9971 -21.499 -64.9961t-67.4961 -22.999h-106.993q-22.999 0 -29.998 -6.99902q-7 -7 -7 -28.998v-86.9951q0 -22.998 8 -31.498
q7.99902 -8.49902 30.998 -8.49902h194.987q19.999 0 27.499 8.49902q7.49902 8.5 7.49902 29.498v48.9971h136.992v-93.9941q0 -57.9961 -27.499 -86.4941q-27.498 -28.499 -90.4941 -28.499h-311.98q-65.9961 0 -90.9951 28.998q-24.998 28.999 -24.998 88.9951v157.99
q0 56.9971 21.998 85.4951q21.999 28.498 78.9951 28.498h119.993zM417.013 677v-150.991h-127.992v150.991h127.992z" />
    <glyph glyph-name="Agrave" unicode="&#xc0;" horiz-adv-x="636" 
d="M466 0l-29 105h-244l-30 -105h-147l209 677h199l195 -677h-153zM319 541l-96 -324h185zM330 740l-173 204h113l149 -204h-89z" />
    <glyph glyph-name="Aacute" unicode="&#xc1;" horiz-adv-x="636" 
d="M466 0l-29 105h-244l-30 -105h-147l209 677h199l195 -677h-153zM319 541l-96 -324h185zM217 740l149 204h113l-173 -204h-89z" />
    <glyph glyph-name="Acircumflex" unicode="&#xc2;" horiz-adv-x="636" 
d="M466 0l-29 105h-244l-30 -105h-147l209 677h199l195 -677h-153zM319 541l-96 -324h185zM449 740l-131 161l-134 -161h-97l174 204h119l169 -204h-100z" />
    <glyph glyph-name="Atilde" unicode="&#xc3;" horiz-adv-x="636" 
d="M466 0l-29 105h-244l-30 -105h-147l209 677h199l195 -677h-153zM319 541l-96 -324h185zM529 820q-21 -19 -53 -27t-58 -8q-30 0 -55.5 7.5t-49 17t-45 17t-43.5 7.5q-30 0 -61 -8.5t-58 -30.5v90q21 19 53 27t58 8t51 -8t49 -17t47.5 -17t45.5 -8q33 0 61.5 8.5
t57.5 31.5v-90z" />
    <glyph glyph-name="Adieresis" unicode="&#xc4;" horiz-adv-x="636" 
d="M466 0l-29 105h-244l-30 -105h-147l209 677h199l195 -677h-153zM319 541l-96 -324h185zM398 737v152h126v-152h-126zM111 737v152h126v-152h-126z" />
    <glyph glyph-name="Aring" unicode="&#xc5;" horiz-adv-x="636" 
d="M466 0l-29 105h-244l-30 -105h-147l209 677h199l195 -677h-153zM319 541l-96 -324h185zM259 717q-33 0 -46 14.5t-13 46.5v105q0 32 13 46.5t46 14.5h117q35 0 47.5 -14.5t12.5 -46.5v-105q0 -32 -12.5 -46.5t-47.5 -14.5h-117zM384 878q0 12 -4 16.5t-17 4.5h-92
q-11 0 -15.5 -4.5t-4.5 -16.5v-91q0 -14 4.5 -18t15.5 -4h92q13 0 17 4t4 18v91z" />
    <glyph glyph-name="AE" unicode="&#xc6;" horiz-adv-x="985" 
d="M427 0v105h-233l-31 -105h-147l210 677h703v-132h-604l-105 -327h207v277h157v-110h249v-108h-249v-142h345v-135h-502z" />
    <glyph glyph-name="Ccedilla" unicode="&#xc7;" horiz-adv-x="586" 
d="M165 0q-64 0 -89.5 29t-25.5 89v441q0 60 25.5 89t89.5 29h381v-135h-306q-24 0 -31 -7.5t-7 -30.5v-330q0 -20 7 -28.5t31 -8.5h308v-137h-383zM216 -256l41 196h113l-56 -196h-98z" />
    <glyph glyph-name="Egrave" unicode="&#xc8;" horiz-adv-x="609" 
d="M51 0v495h157v-110h249v-108h-249v-142h345v-135h-502zM51 545v132h502v-132h-502zM316 740l-173 204h113l149 -204h-89z" />
    <glyph glyph-name="Eacute" unicode="&#xc9;" horiz-adv-x="609" 
d="M51 0v495h157v-110h249v-108h-249v-142h345v-135h-502zM51 545v132h502v-132h-502zM203 740l149 204h113l-173 -204h-89z" />
    <glyph glyph-name="Ecircumflex" unicode="&#xca;" horiz-adv-x="609" 
d="M51 0v495h157v-110h249v-108h-249v-142h345v-135h-502zM51 545v132h502v-132h-502zM435 740l-131 161l-134 -161h-97l174 204h119l169 -204h-100z" />
    <glyph glyph-name="Edieresis" unicode="&#xcb;" horiz-adv-x="609" 
d="M51 0v495h157v-110h249v-108h-249v-142h345v-135h-502zM51 545v132h502v-132h-502zM385 737v152h126v-152h-126zM98 737v152h126v-152h-126z" />
    <glyph glyph-name="Igrave" unicode="&#xcc;" horiz-adv-x="270" 
d="M58 0v677h152v-677h-152zM148 740l-173 204h113l149 -204h-89z" />
    <glyph glyph-name="Iacute" unicode="&#xcd;" horiz-adv-x="270" 
d="M58 0v677h152v-677h-152zM35 740l149 204h113l-173 -204h-89z" />
    <glyph glyph-name="Icircumflex" unicode="&#xce;" horiz-adv-x="270" 
d="M58 0v677h152v-677h-152zM267 740l-131 161l-134 -161h-97l174 204h119l169 -204h-100z" />
    <glyph glyph-name="Idieresis" unicode="&#xcf;" horiz-adv-x="270" 
d="M58 0v677h152v-677h-152zM217 737v152h126v-152h-126zM-70 737v152h126v-152h-126z" />
    <glyph glyph-name="Eth" unicode="&#xd0;" 
d="M54 0v284h-39v91h39v120h150v-120h164v-91h-164v-152h214q26 0 40 16.5t14 48.5v283q0 65 -54 65h-364v132h392q90 0 134 -44t44 -129v-331q0 -85 -44 -129t-134 -44h-392z" />
    <glyph glyph-name="Ntilde" unicode="&#xd1;" horiz-adv-x="703" 
d="M545 0l-350 444v-444h-141v677h143l307 -404v404h142v-677h-101zM563 820q-21 -19 -53 -27t-58 -8q-30 0 -55.5 7.5t-49 17t-45 17t-43.5 7.5q-30 0 -61 -8.5t-58 -30.5v90q21 19 53 27t58 8t51 -8t49 -17t47.5 -17t45.5 -8q33 0 61.5 8.5t57.5 31.5v-90z" />
    <glyph glyph-name="Ograve" unicode="&#xd2;" horiz-adv-x="668" 
d="M166 0q-65 0 -90 29t-25 89v441q0 60 25 89t90 29h337q64 0 89.5 -29t25.5 -89v-441q0 -60 -25.5 -89t-89.5 -29h-337zM466 506q0 23 -8.5 31t-32.5 8h-189q-20 0 -27 -8t-7 -31v-337q0 -18 7 -26t27 -8h189q24 0 32.5 8t8.5 26v337zM346 740l-173 204h113l149 -204h-89z
" />
    <glyph glyph-name="Oacute" unicode="&#xd3;" horiz-adv-x="668" 
d="M166 0q-65 0 -90 29t-25 89v441q0 60 25 89t90 29h337q64 0 89.5 -29t25.5 -89v-441q0 -60 -25.5 -89t-89.5 -29h-337zM466 506q0 23 -8.5 31t-32.5 8h-189q-20 0 -27 -8t-7 -31v-337q0 -18 7 -26t27 -8h189q24 0 32.5 8t8.5 26v337zM233 740l149 204h113l-173 -204h-89z
" />
    <glyph glyph-name="Ocircumflex" unicode="&#xd4;" horiz-adv-x="668" 
d="M166 0q-65 0 -90 29t-25 89v441q0 60 25 89t90 29h337q64 0 89.5 -29t25.5 -89v-441q0 -60 -25.5 -89t-89.5 -29h-337zM466 506q0 23 -8.5 31t-32.5 8h-189q-20 0 -27 -8t-7 -31v-337q0 -18 7 -26t27 -8h189q24 0 32.5 8t8.5 26v337zM465 740l-131 161l-134 -161h-97
l174 204h119l169 -204h-100z" />
    <glyph glyph-name="Otilde" unicode="&#xd5;" horiz-adv-x="668" 
d="M166 0q-65 0 -90 29t-25 89v441q0 60 25 89t90 29h337q64 0 89.5 -29t25.5 -89v-441q0 -60 -25.5 -89t-89.5 -29h-337zM466 506q0 23 -8.5 31t-32.5 8h-189q-20 0 -27 -8t-7 -31v-337q0 -18 7 -26t27 -8h189q24 0 32.5 8t8.5 26v337zM545 820q-21 -19 -53 -27t-58 -8
q-30 0 -55.5 7.5t-49 17t-45 17t-43.5 7.5q-30 0 -61 -8.5t-58 -30.5v90q21 19 53 27t58 8t51 -8t49 -17t47.5 -17t45.5 -8q33 0 61.5 8.5t57.5 31.5v-90z" />
    <glyph glyph-name="Odieresis" unicode="&#xd6;" horiz-adv-x="668" 
d="M166 0q-65 0 -90 29t-25 89v441q0 60 25 89t90 29h337q64 0 89.5 -29t25.5 -89v-441q0 -60 -25.5 -89t-89.5 -29h-337zM466 506q0 23 -8.5 31t-32.5 8h-189q-20 0 -27 -8t-7 -31v-337q0 -18 7 -26t27 -8h189q24 0 32.5 8t8.5 26v337zM414 737v152h126v-152h-126zM127 737
v152h126v-152h-126z" />
    <glyph glyph-name="multiply" unicode="&#xd7;" horiz-adv-x="605" 
d="M453 127l-151 152l-151 -152l-71 71l151 151l-150 151l71 71l150 -151l150 151l71 -71l-150 -151l151 -152z" />
    <glyph glyph-name="Oslash" unicode="&#xd8;" horiz-adv-x="668" 
d="M172 0l-42 -71h-79l49 82q-27 13 -38 39t-11 68v441q0 60 25 89t90 29h330l43 72h78l-50 -83q28 -13 39.5 -39t11.5 -68v-441q0 -60 -25.5 -89t-89.5 -29h-331zM202 183l215 362h-181q-20 0 -27 -8t-7 -31v-323zM466 495l-214 -360h173q24 0 32.5 8t8.5 26v326z" />
    <glyph glyph-name="Ugrave" unicode="&#xd9;" 
d="M169 0q-65 0 -90.5 29t-25.5 89v559h152v-506q0 -23 7 -29.5t28 -6.5h200q20 0 27.5 6.5t7.5 29.5v506h146v-559q0 -60 -25.5 -89t-89.5 -29h-337zM349 740l-173 204h113l149 -204h-89z" />
    <glyph glyph-name="Uacute" unicode="&#xda;" 
d="M169 0q-65 0 -90.5 29t-25.5 89v559h152v-506q0 -23 7 -29.5t28 -6.5h200q20 0 27.5 6.5t7.5 29.5v506h146v-559q0 -60 -25.5 -89t-89.5 -29h-337zM236 740l149 204h113l-173 -204h-89z" />
    <glyph glyph-name="Ucircumflex" unicode="&#xdb;" 
d="M169 0q-65 0 -90.5 29t-25.5 89v559h152v-506q0 -23 7 -29.5t28 -6.5h200q20 0 27.5 6.5t7.5 29.5v506h146v-559q0 -60 -25.5 -89t-89.5 -29h-337zM468 740l-131 161l-134 -161h-97l174 204h119l169 -204h-100z" />
    <glyph glyph-name="Udieresis" unicode="&#xdc;" 
d="M169 0q-65 0 -90.5 29t-25.5 89v559h152v-506q0 -23 7 -29.5t28 -6.5h200q20 0 27.5 6.5t7.5 29.5v506h146v-559q0 -60 -25.5 -89t-89.5 -29h-337zM418 737v152h126v-152h-126zM131 737v152h126v-152h-126z" />
    <glyph glyph-name="Yacute" unicode="&#xdd;" horiz-adv-x="617" 
d="M232 0v279l-219 398h159l139 -267l140 267h152l-219 -398v-279h-152zM207 740l149 204h113l-173 -204h-89z" />
    <glyph glyph-name="Thorn" unicode="&#xde;" horiz-adv-x="665" 
d="M207 96v-96h-152v677h152v-454h230q23 0 31.5 9.5t8.5 31.5v175q0 23 -9.5 33t-30.5 10h-180v114h253q65 0 90 -29t25 -89v-264q0 -60 -25 -89t-90 -29h-303z" />
    <glyph glyph-name="germandbls" unicode="&#xdf;" horiz-adv-x="730" 
d="M301 0v113h208q15 0 20.5 6t5.5 21v160q0 12 -5 16.5t-17 4.5h-101q-41 0 -58 18t-17 53v193q0 14 -4.5 19t-18.5 5h-101q-13 0 -17 -5t-4 -19v-585h-140v619q0 51 20.5 75t74.5 24h219q54 0 75.5 -24t21.5 -75v-179q0 -12 4 -16t16 -4h119q42 0 60.5 -19.5t18.5 -51.5
v-261q0 -45 -20.5 -66.5t-73.5 -21.5h-286z" />
    <glyph glyph-name="agrave" unicode="&#xe0;" horiz-adv-x="630" 
d="M138 0q-49 0 -68 23.5t-19 71.5v120q0 57 17.5 77t65.5 20h257v-86h-184q-14 0 -18.5 -5t-4.5 -21v-53q0 -15 4.5 -21t18.5 -6h234v248q0 14 -6 21t-23 7h-343v110h414q56 0 76 -24t20 -75v-407h-441zM337 569l-173 204h113l149 -204h-89z" />
    <glyph glyph-name="aacute" unicode="&#xe1;" horiz-adv-x="630" 
d="M138 0q-49 0 -68 23.5t-19 71.5v120q0 57 17.5 77t65.5 20h257v-86h-184q-14 0 -18.5 -5t-4.5 -21v-53q0 -15 4.5 -21t18.5 -6h234v248q0 14 -6 21t-23 7h-343v110h414q56 0 76 -24t20 -75v-407h-441zM214 569l149 204h113l-173 -204h-89z" />
    <glyph glyph-name="acircumflex" unicode="&#xe2;" horiz-adv-x="630" 
d="M138 0q-49 0 -68 23.5t-19 71.5v120q0 57 17.5 77t65.5 20h257v-86h-184q-14 0 -18.5 -5t-4.5 -21v-53q0 -15 4.5 -21t18.5 -6h234v248q0 14 -6 21t-23 7h-343v110h414q56 0 76 -24t20 -75v-407h-441zM451 569l-131 161l-134 -161h-97l174 204h119l169 -204h-100z" />
    <glyph glyph-name="atilde" unicode="&#xe3;" horiz-adv-x="630" 
d="M138 0q-49 0 -68 23.5t-19 71.5v120q0 57 17.5 77t65.5 20h257v-86h-184q-14 0 -18.5 -5t-4.5 -21v-53q0 -15 4.5 -21t18.5 -6h234v248q0 14 -6 21t-23 7h-343v110h414q56 0 76 -24t20 -75v-407h-441zM533 649q-21 -19 -53 -27t-58 -8q-30 0 -55.5 7.5t-49 17t-45 17
t-43.5 7.5q-30 0 -61 -8.5t-58 -30.5v90q21 19 53 27t58 8t51 -8t49 -17t47.5 -17t45.5 -8q33 0 61.5 8.5t57.5 31.5v-90z" />
    <glyph glyph-name="adieresis" unicode="&#xe4;" horiz-adv-x="630" 
d="M138 0q-49 0 -68 23.5t-19 71.5v120q0 57 17.5 77t65.5 20h257v-86h-184q-14 0 -18.5 -5t-4.5 -21v-53q0 -15 4.5 -21t18.5 -6h234v248q0 14 -6 21t-23 7h-343v110h414q56 0 76 -24t20 -75v-407h-441zM395 566v152h126v-152h-126zM108 566v152h126v-152h-126z" />
    <glyph glyph-name="aring" unicode="&#xe5;" horiz-adv-x="630" 
d="M138 0q-49 0 -68 23.5t-19 71.5v120q0 57 17.5 77t65.5 20h257v-86h-184q-14 0 -18.5 -5t-4.5 -21v-53q0 -15 4.5 -21t18.5 -6h234v248q0 14 -6 21t-23 7h-343v110h414q56 0 76 -24t20 -75v-407h-441zM256 546q-33 0 -46 14.5t-13 46.5v105q0 32 13 46.5t46 14.5h117
q35 0 47.5 -14.5t12.5 -46.5v-105q0 -32 -12.5 -46.5t-47.5 -14.5h-117zM381 707q0 12 -4 16.5t-17 4.5h-92q-11 0 -15.5 -4.5t-4.5 -16.5v-91q0 -14 4.5 -18t15.5 -4h92q13 0 17 4t4 18v91z" />
    <glyph glyph-name="ae" unicode="&#xe6;" horiz-adv-x="985" 
d="M140 0q-50 0 -69 23.5t-19 71.5v120q0 28 4 47t13.5 30t26 15.5t40.5 4.5h236v-86h-163q-15 0 -19.5 -5t-4.5 -21v-58q0 -15 4.5 -21t19.5 -6h213v281h-352v110h777q49 0 67.5 -23.5t18.5 -71.5v-199h-323v84h190v72q0 16 -5 22t-21 6h-214v-281h354v-115h-774z" />
    <glyph glyph-name="ccedilla" unicode="&#xe7;" horiz-adv-x="542" 
d="M144 0q-54 0 -74.5 24t-20.5 75v308q0 51 20.5 75t74.5 24h357v-123h-285q-17 0 -22 -5t-5 -22v-202q0 -16 5 -22t22 -6h285v-126h-357zM194 -256l41 196h113l-56 -196h-98z" />
    <glyph glyph-name="egrave" unicode="&#xe8;" horiz-adv-x="618" 
d="M140 0q-55 0 -75.5 24t-20.5 75v308q0 51 20.5 75t75.5 24h342q50 0 68.5 -23.5t18.5 -71.5v-199h-337v84h204v68q0 16 -5 21.5t-21 5.5h-201q-17 0 -22 -5.5t-5 -22.5v-218q0 -18 5 -24t22 -6h341v-115h-410zM321 569l-173 204h113l149 -204h-89z" />
    <glyph glyph-name="eacute" unicode="&#xe9;" horiz-adv-x="618" 
d="M140 0q-55 0 -75.5 24t-20.5 75v308q0 51 20.5 75t75.5 24h342q50 0 68.5 -23.5t18.5 -71.5v-199h-337v84h204v68q0 16 -5 21.5t-21 5.5h-201q-17 0 -22 -5.5t-5 -22.5v-218q0 -18 5 -24t22 -6h341v-115h-410zM208 569l149 204h113l-173 -204h-89z" />
    <glyph glyph-name="ecircumflex" unicode="&#xea;" horiz-adv-x="618" 
d="M140 0q-55 0 -75.5 24t-20.5 75v308q0 51 20.5 75t75.5 24h342q50 0 68.5 -23.5t18.5 -71.5v-199h-337v84h204v68q0 16 -5 21.5t-21 5.5h-201q-17 0 -22 -5.5t-5 -22.5v-218q0 -18 5 -24t22 -6h341v-115h-410zM440 569l-131 161l-134 -161h-97l174 204h119l169 -204h-100
z" />
    <glyph glyph-name="edieresis" unicode="&#xeb;" horiz-adv-x="618" 
d="M140 0q-55 0 -75.5 24t-20.5 75v308q0 51 20.5 75t75.5 24h342q50 0 68.5 -23.5t18.5 -71.5v-199h-337v84h204v68q0 16 -5 21.5t-21 5.5h-201q-17 0 -22 -5.5t-5 -22.5v-218q0 -18 5 -24t22 -6h341v-115h-410zM389 566v152h126v-152h-126zM102 566v152h126v-152h-126z
" />
    <glyph glyph-name="igrave" unicode="&#xec;" horiz-adv-x="290" 
d="M93 0v506h140v-506h-140zM177 569l-173 204h113l149 -204h-89z" />
    <glyph glyph-name="iacute" unicode="&#xed;" horiz-adv-x="292" 
d="M56 0v506h140v-506h-140zM27 569l149 204h113l-173 -204h-89z" />
    <glyph glyph-name="icircumflex" unicode="&#xee;" horiz-adv-x="403" 
d="M132 0v506h140v-506h-140zM335 569l-131 161l-134 -161h-97l174 204h119l169 -204h-100z" />
    <glyph glyph-name="idieresis" unicode="&#xef;" horiz-adv-x="360" 
d="M111 0v506h140v-506h-140zM263 566v152h126v-152h-126zM-24 566v152h126v-152h-126z" />
    <glyph glyph-name="eth" unicode="&#xf0;" horiz-adv-x="609" 
d="M144 0q-54 0 -75 24t-21 75v243q0 54 24 76.5t72 22.5h218v-119h-143q-30 0 -30 -33v-131q0 -18 6 -26t23 -8h142q17 0 23.5 8t6.5 25v301q0 32 -4.5 48.5t-18.5 36.5l-21 29l-188 -66v67l149 54l-65 91h155l34 -47l128 47v-69l-89 -32l29 -38q11 -14 17.5 -26.5
t9.5 -27.5t4 -34.5t1 -46.5v-345q0 -52 -21.5 -75.5t-75.5 -23.5h-290z" />
    <glyph glyph-name="ntilde" unicode="&#xf1;" horiz-adv-x="649" 
d="M456 0v357q0 17 -6 22.5t-23 5.5h-209q-15 0 -21 -5.5t-6 -22.5v-357h-140v506h135v-55q25 55 87 55h227q51 0 73 -22.5t22 -76.5v-407h-139zM546 649q-21 -19 -53 -27t-58 -8q-30 0 -55.5 7.5t-49 17t-45 17t-43.5 7.5q-30 0 -61 -8.5t-58 -30.5v90q21 19 53 27t58 8
t51 -8t49 -17t47.5 -17t45.5 -8q33 0 61.5 8.5t57.5 31.5v-90z" />
    <glyph glyph-name="ograve" unicode="&#xf2;" horiz-adv-x="633" 
d="M144 0q-54 0 -74.5 24t-20.5 75v308q0 51 20.5 75t74.5 24h344q56 0 76 -24t20 -75v-308q0 -51 -20 -75t-76 -24h-344zM444 357q0 17 -6 22.5t-25 5.5h-198q-16 0 -21 -5.5t-5 -22.5v-206q0 -15 5 -21t21 -6h198q19 0 25 6t6 21v206zM328 569l-173 204h113l149 -204h-89z
" />
    <glyph glyph-name="oacute" unicode="&#xf3;" horiz-adv-x="633" 
d="M144 0q-54 0 -74.5 24t-20.5 75v308q0 51 20.5 75t74.5 24h344q56 0 76 -24t20 -75v-308q0 -51 -20 -75t-76 -24h-344zM444 357q0 17 -6 22.5t-25 5.5h-198q-16 0 -21 -5.5t-5 -22.5v-206q0 -15 5 -21t21 -6h198q19 0 25 6t6 21v206zM215 569l149 204h113l-173 -204h-89z
" />
    <glyph glyph-name="ocircumflex" unicode="&#xf4;" horiz-adv-x="633" 
d="M144 0q-54 0 -74.5 24t-20.5 75v308q0 51 20.5 75t74.5 24h344q56 0 76 -24t20 -75v-308q0 -51 -20 -75t-76 -24h-344zM444 357q0 17 -6 22.5t-25 5.5h-198q-16 0 -21 -5.5t-5 -22.5v-206q0 -15 5 -21t21 -6h198q19 0 25 6t6 21v206zM447 569l-131 161l-134 -161h-97
l174 204h119l169 -204h-100z" />
    <glyph glyph-name="otilde" unicode="&#xf5;" horiz-adv-x="633" 
d="M144 0q-54 0 -74.5 24t-20.5 75v308q0 51 20.5 75t74.5 24h344q56 0 76 -24t20 -75v-308q0 -51 -20 -75t-76 -24h-344zM444 357q0 17 -6 22.5t-25 5.5h-198q-16 0 -21 -5.5t-5 -22.5v-206q0 -15 5 -21t21 -6h198q19 0 25 6t6 21v206zM528 649q-21 -19 -53 -27t-58 -8
q-30 0 -55.5 7.5t-49 17t-45 17t-43.5 7.5q-30 0 -61 -8.5t-58 -30.5v90q21 19 53 27t58 8t51 -8t49 -17t47.5 -17t45.5 -8q33 0 61.5 8.5t57.5 31.5v-90z" />
    <glyph glyph-name="odieresis" unicode="&#xf6;" horiz-adv-x="633" 
d="M144 0q-54 0 -74.5 24t-20.5 75v308q0 51 20.5 75t74.5 24h344q56 0 76 -24t20 -75v-308q0 -51 -20 -75t-76 -24h-344zM444 357q0 17 -6 22.5t-25 5.5h-198q-16 0 -21 -5.5t-5 -22.5v-206q0 -15 5 -21t21 -6h198q19 0 25 6t6 21v206zM397 566v152h126v-152h-126zM110 566
v152h126v-152h-126z" />
    <glyph glyph-name="divide" unicode="&#xf7;" horiz-adv-x="633" 
d="M53 299v100h526v-100h-526zM252 479v151h128v-151h-128zM252 68v151h128v-151h-128z" />
    <glyph glyph-name="oslash" unicode="&#xf8;" horiz-adv-x="633" 
d="M179 0l-50 -71h-80l54 76q-30 8 -42 31t-12 63v308q0 51 20.5 75t74.5 24h313l46 64h80l-50 -70q29 -9 40 -32t11 -61v-308q0 -51 -20 -75t-76 -24h-309zM189 151q0 -14 4 -19l179 253h-157q-16 0 -21 -5.5t-5 -22.5v-206zM444 357q0 9 -2 13l-175 -246h146q19 0 25 6
t6 21v206z" />
    <glyph glyph-name="ugrave" unicode="&#xf9;" horiz-adv-x="640" 
d="M453 0v54q-13 -29 -34 -41.5t-53 -12.5h-220q-50 0 -72.5 22.5t-22.5 76.5v407h140v-357q0 -17 5.5 -23t22.5 -6h201q16 0 22 6t6 23v357h140v-506h-135zM332 569l-173 204h113l149 -204h-89z" />
    <glyph glyph-name="uacute" unicode="&#xfa;" horiz-adv-x="640" 
d="M453 0v54q-13 -29 -34 -41.5t-53 -12.5h-220q-50 0 -72.5 22.5t-22.5 76.5v407h140v-357q0 -17 5.5 -23t22.5 -6h201q16 0 22 6t6 23v357h140v-506h-135zM219 569l149 204h113l-173 -204h-89z" />
    <glyph glyph-name="ucircumflex" unicode="&#xfb;" horiz-adv-x="640" 
d="M453 0v54q-13 -29 -34 -41.5t-53 -12.5h-220q-50 0 -72.5 22.5t-22.5 76.5v407h140v-357q0 -17 5.5 -23t22.5 -6h201q16 0 22 6t6 23v357h140v-506h-135zM451 569l-131 161l-134 -161h-97l174 204h119l169 -204h-100z" />
    <glyph glyph-name="udieresis" unicode="&#xfc;" horiz-adv-x="640" 
d="M453 0v54q-13 -29 -34 -41.5t-53 -12.5h-220q-50 0 -72.5 22.5t-22.5 76.5v407h140v-357q0 -17 5.5 -23t22.5 -6h201q16 0 22 6t6 23v357h140v-506h-135zM400 566v152h126v-152h-126zM113 566v152h126v-152h-126z" />
    <glyph glyph-name="yacute" unicode="&#xfd;" horiz-adv-x="610" 
d="M61 -212v121h336q17 0 22.5 6t5.5 23v62h-288q-54 0 -74.5 24t-20.5 75v407h140v-363q0 -16 5.5 -22.5t22.5 -6.5h215v392h141v-619q0 -51 -21 -75t-76 -24h-408zM204 569l149 204h113l-173 -204h-89z" />
    <glyph glyph-name="thorn" unicode="&#xfe;" horiz-adv-x="628" 
d="M193 0v-213h-139v931h139v-594h214q31 0 31 33v194q0 19 -7 26.5t-24 7.5h-164v121h239q95 0 95 -99v-308q0 -51 -20 -75t-75 -24h-289z" />
    <glyph glyph-name="ydieresis" unicode="&#xff;" horiz-adv-x="610" 
d="M61 -212v121h336q17 0 22.5 6t5.5 23v62h-288q-54 0 -74.5 24t-20.5 75v407h140v-363q0 -16 5.5 -22.5t22.5 -6.5h215v392h141v-619q0 -51 -21 -75t-76 -24h-408zM385 566v152h126v-152h-126zM98 566v152h126v-152h-126z" />
    <glyph glyph-name="Amacron" unicode="&#x100;" horiz-adv-x="636" 
d="M466 0l-29 105h-244l-30 -105h-147l209 677h199l195 -677h-153zM319 541l-96 -324h185zM87 805v89h461v-89h-461z" />
    <glyph glyph-name="amacron" unicode="&#x101;" horiz-adv-x="630" 
d="M138 0q-49 0 -68 23.5t-19 71.5v120q0 57 17.5 77t65.5 20h257v-86h-184q-14 0 -18.5 -5t-4.5 -21v-53q0 -15 4.5 -21t18.5 -6h234v248q0 14 -6 21t-23 7h-343v110h414q56 0 76 -24t20 -75v-407h-441zM89 634v89h461v-89h-461z" />
    <glyph glyph-name="Abreve" unicode="&#x102;" horiz-adv-x="636" 
d="M466 0l-29 105h-244l-30 -105h-147l209 677h199l195 -677h-153zM319 541l-96 -324h185zM523 944q0 -46 -8 -84t-30.5 -65.5t-62.5 -42.5t-104 -15t-104.5 15t-63 42.5t-30.5 65.5t-8 84h62q0 -33 6 -59t22 -44.5t44 -28t72 -9.5q43 0 71 9.5t43.5 28t22 44.5t6.5 59h62z
" />
    <glyph glyph-name="abreve" unicode="&#x103;" horiz-adv-x="630" 
d="M138 0q-49 0 -68 23.5t-19 71.5v120q0 57 17.5 77t65.5 20h257v-86h-184q-14 0 -18.5 -5t-4.5 -21v-53q0 -15 4.5 -21t18.5 -6h234v248q0 14 -6 21t-23 7h-343v110h414q56 0 76 -24t20 -75v-407h-441zM527 773q0 -46 -8 -84t-30.5 -65.5t-62.5 -42.5t-104 -15t-104.5 15
t-63 42.5t-30.5 65.5t-8 84h62q0 -33 6 -59t22 -44.5t44 -28t72 -9.5q43 0 71 9.5t43.5 28t22 44.5t6.5 59h62z" />
    <glyph glyph-name="Aogonek" unicode="&#x104;" horiz-adv-x="636" 
d="M441 -256q-26 0 -42 15t-16 50v51q0 34 8.5 52t37.5 33l102 55h-65l-29 105h-244l-30 -105h-147l209 677h199l195 -677l-121 -70q-11 -6 -13.5 -12t-2.5 -20v-31q0 -12 4 -16.5t14 -4.5h119v-102h-178zM319 541l-96 -324h185z" />
    <glyph glyph-name="aogonek" unicode="&#x105;" horiz-adv-x="630" 
d="M401 -256q-26 0 -42 15t-16 50v51q0 34 8.5 52t37.5 33l102 55h-353q-49 0 -68 23.5t-19 71.5v120q0 57 17.5 77t65.5 20h257v-86h-184q-14 0 -18.5 -5t-4.5 -21v-53q0 -15 4.5 -21t18.5 -6h234v248q0 14 -6 21t-23 7h-343v110h414q56 0 76 -24t20 -75v-407l-121 -70
q-11 -6 -13.5 -12t-2.5 -20v-31q0 -12 4 -16.5t14 -4.5h119v-102h-178z" />
    <glyph glyph-name="Cacute" unicode="&#x106;" horiz-adv-x="586" 
d="M165 0q-64 0 -89.5 29t-25.5 89v441q0 60 25.5 89t89.5 29h381v-135h-306q-24 0 -31 -7.5t-7 -30.5v-330q0 -20 7 -28.5t31 -8.5h308v-137h-383zM192 740l149 204h113l-173 -204h-89z" />
    <glyph glyph-name="cacute" unicode="&#x107;" horiz-adv-x="542" 
d="M144 0q-54 0 -74.5 24t-20.5 75v308q0 51 20.5 75t74.5 24h357v-123h-285q-17 0 -22 -5t-5 -22v-202q0 -16 5 -22t22 -6h285v-126h-357zM170 569l149 204h113l-173 -204h-89z" />
    <glyph glyph-name="Ccircumflex" unicode="&#x108;" horiz-adv-x="586" 
d="M165 0q-64 0 -89.5 29t-25.5 89v441q0 60 25.5 89t89.5 29h381v-135h-306q-24 0 -31 -7.5t-7 -30.5v-330q0 -20 7 -28.5t31 -8.5h308v-137h-383zM439 740l-131 161l-134 -161h-97l174 204h119l169 -204h-100z" />
    <glyph glyph-name="ccircumflex" unicode="&#x109;" horiz-adv-x="542" 
d="M144 0q-54 0 -74.5 24t-20.5 75v308q0 51 20.5 75t74.5 24h357v-123h-285q-17 0 -22 -5t-5 -22v-202q0 -16 5 -22t22 -6h285v-126h-357zM413 569l-131 161l-134 -161h-97l174 204h119l169 -204h-100z" />
    <glyph glyph-name="Cdotaccent" unicode="&#x10a;" horiz-adv-x="586" 
d="M165 0q-64 0 -89.5 29t-25.5 89v441q0 60 25.5 89t89.5 29h381v-135h-306q-24 0 -31 -7.5t-7 -30.5v-330q0 -20 7 -28.5t31 -8.5h308v-137h-383zM246 737v152h126v-152h-126z" />
    <glyph glyph-name="cdotaccent" unicode="&#x10b;" horiz-adv-x="542" 
d="M144 0q-54 0 -74.5 24t-20.5 75v308q0 51 20.5 75t74.5 24h357v-123h-285q-17 0 -22 -5t-5 -22v-202q0 -16 5 -22t22 -6h285v-126h-357zM223 566v152h126v-152h-126z" />
    <glyph glyph-name="Ccaron" unicode="&#x10c;" horiz-adv-x="586" 
d="M165 0q-64 0 -89.5 29t-25.5 89v441q0 60 25.5 89t89.5 29h381v-135h-306q-24 0 -31 -7.5t-7 -30.5v-330q0 -20 7 -28.5t31 -8.5h308v-137h-383zM250 740q-15 17 -37.5 44.5t-46.5 57.5t-46.5 57.5t-37.5 44.5h100l130 -161l134 161h98l-175 -204h-119z" />
    <glyph glyph-name="ccaron" unicode="&#x10d;" horiz-adv-x="542" 
d="M144 0q-54 0 -74.5 24t-20.5 75v308q0 51 20.5 75t74.5 24h357v-123h-285q-17 0 -22 -5t-5 -22v-202q0 -16 5 -22t22 -6h285v-126h-357zM219 569q-15 17 -37.5 44.5t-46.5 57.5t-46.5 57.5t-37.5 44.5h100l130 -161l134 161h98l-175 -204h-119z" />
    <glyph glyph-name="Dcaron" unicode="&#x10e;" horiz-adv-x="676" 
d="M56 0v494h150v-362h213q26 0 40 16.5t14 48.5v282q0 65 -54 65h-363v133h391q90 0 134 -44t44 -129v-331q0 -85 -44 -129t-134 -44h-391zM260 740q-15 17 -37.5 44.5t-46.5 57.5t-46.5 57.5t-37.5 44.5h100l130 -161l134 161h98l-175 -204h-119z" />
    <glyph glyph-name="dcaron" unicode="&#x10f;" horiz-adv-x="762" 
d="M144 0q-54 0 -74.5 24t-20.5 75v308q0 51 23.5 75t71.5 24h239v-121h-167q-16 0 -21.5 -5.5t-5.5 -22.5v-205q0 -16 5 -22t22 -6h217v594h141v-718h-430zM591 469l43 249h128l-59 -249h-112z" />
    <glyph glyph-name="Dcroat" unicode="&#x110;" 
d="M54 0v284h-39v91h39v120h150v-120h164v-91h-164v-152h214q26 0 40 16.5t14 48.5v283q0 65 -54 65h-364v132h392q90 0 134 -44t44 -129v-331q0 -85 -44 -129t-134 -44h-392z" />
    <glyph glyph-name="dcroat" unicode="&#x111;" horiz-adv-x="628" 
d="M144 0q-54 0 -74.5 24t-20.5 75v308q0 51 23.5 75t71.5 24h239v-121h-167q-16 0 -21.5 -5.5t-5.5 -22.5v-205q0 -16 5 -22t22 -6h217v440h-270v89h270v65h141v-65h50v-89h-50v-564h-430z" />
    <glyph glyph-name="Emacron" unicode="&#x112;" horiz-adv-x="609" 
d="M51 0v495h157v-110h249v-108h-249v-142h345v-135h-502zM51 545v132h502v-132h-502zM74 805v89h461v-89h-461z" />
    <glyph glyph-name="emacron" unicode="&#x113;" horiz-adv-x="618" 
d="M140 0q-55 0 -75.5 24t-20.5 75v308q0 51 20.5 75t75.5 24h342q50 0 68.5 -23.5t18.5 -71.5v-199h-337v84h204v68q0 16 -5 21.5t-21 5.5h-201q-17 0 -22 -5.5t-5 -22.5v-218q0 -18 5 -24t22 -6h341v-115h-410zM78 634v89h461v-89h-461z" />
    <glyph glyph-name="Ebreve" unicode="&#x114;" horiz-adv-x="609" 
d="M51 0v495h157v-110h249v-108h-249v-142h345v-135h-502zM51 545v132h502v-132h-502zM510 944q0 -46 -8 -84t-30.5 -65.5t-62.5 -42.5t-104 -15t-104.5 15t-63 42.5t-30.5 65.5t-8 84h62q0 -33 6 -59t22 -44.5t44 -28t72 -9.5q43 0 71 9.5t43.5 28t22 44.5t6.5 59h62z" />
    <glyph glyph-name="ebreve" unicode="&#x115;" horiz-adv-x="618" 
d="M140 0q-55 0 -75.5 24t-20.5 75v308q0 51 20.5 75t75.5 24h342q50 0 68.5 -23.5t18.5 -71.5v-199h-337v84h204v68q0 16 -5 21.5t-21 5.5h-201q-17 0 -22 -5.5t-5 -22.5v-218q0 -18 5 -24t22 -6h341v-115h-410zM514 773q0 -46 -8 -84t-30.5 -65.5t-62.5 -42.5t-104 -15
t-104.5 15t-63 42.5t-30.5 65.5t-8 84h62q0 -33 6 -59t22 -44.5t44 -28t72 -9.5q43 0 71 9.5t43.5 28t22 44.5t6.5 59h62z" />
    <glyph glyph-name="Edotaccent" unicode="&#x116;" horiz-adv-x="609" 
d="M51 0v495h157v-110h249v-108h-249v-142h345v-135h-502zM51 545v132h502v-132h-502zM241 737v152h126v-152h-126z" />
    <glyph glyph-name="edotaccent" unicode="&#x117;" horiz-adv-x="618" 
d="M140 0q-55 0 -75.5 24t-20.5 75v308q0 51 20.5 75t75.5 24h342q50 0 68.5 -23.5t18.5 -71.5v-199h-337v84h204v68q0 16 -5 21.5t-21 5.5h-201q-17 0 -22 -5.5t-5 -22.5v-218q0 -18 5 -24t22 -6h341v-115h-410zM246 566v152h126v-152h-126z" />
    <glyph glyph-name="Eogonek" unicode="&#x118;" horiz-adv-x="609" 
d="M375 -256q-26 0 -42 15t-16 50v51q0 34 8.5 52t37.5 33l102 55h-414v495h157v-110h249v-108h-249v-142h345v-135l-121 -70q-11 -6 -13.5 -12t-2.5 -20v-31q0 -12 4 -16.5t14 -4.5h119v-102h-178zM51 545v132h502v-132h-502z" />
    <glyph glyph-name="eogonek" unicode="&#x119;" horiz-adv-x="618" 
d="M372 -256q-26 0 -42 15t-16 50v51q0 34 8.5 52t37.5 33l102 55h-322q-55 0 -75.5 24t-20.5 75v308q0 51 20.5 75t75.5 24h342q50 0 68.5 -23.5t18.5 -71.5v-199h-337v84h204v68q0 16 -5 21.5t-21 5.5h-201q-17 0 -22 -5.5t-5 -22.5v-218q0 -18 5 -24t22 -6h341v-115
l-121 -70q-11 -6 -13.5 -12t-2.5 -20v-31q0 -12 4 -16.5t14 -4.5h119v-102h-178z" />
    <glyph glyph-name="Ecaron" unicode="&#x11a;" horiz-adv-x="609" 
d="M51 0v495h157v-110h249v-108h-249v-142h345v-135h-502zM51 545v132h502v-132h-502zM241 740q-15 17 -37.5 44.5t-46.5 57.5t-46.5 57.5t-37.5 44.5h100l130 -161l134 161h98l-175 -204h-119z" />
    <glyph glyph-name="ecaron" unicode="&#x11b;" horiz-adv-x="618" 
d="M140 0q-55 0 -75.5 24t-20.5 75v308q0 51 20.5 75t75.5 24h342q50 0 68.5 -23.5t18.5 -71.5v-199h-337v84h204v68q0 16 -5 21.5t-21 5.5h-201q-17 0 -22 -5.5t-5 -22.5v-218q0 -18 5 -24t22 -6h341v-115h-410zM246 569q-15 17 -37.5 44.5t-46.5 57.5t-46.5 57.5
t-37.5 44.5h100l130 -161l134 161h98l-175 -204h-119z" />
    <glyph glyph-name="Gcircumflex" unicode="&#x11c;" horiz-adv-x="645" 
d="M166 0q-65 0 -90 29t-25 89v441q0 60 25 89t90 29h418v-135h-352q-20 0 -26 -7t-6 -30v-345q0 -17 6.5 -23.5t25.5 -6.5h217v154h-134v109h276v-393h-425zM453 740l-131 161l-134 -161h-97l174 204h119l169 -204h-100z" />
    <glyph glyph-name="gcircumflex" unicode="&#x11d;" horiz-adv-x="613" 
d="M62 -212v121h338q17 0 22.5 6t5.5 23v447h-218q-17 0 -22 -6t-5 -22v-216q0 -15 5 -21t22 -6h168v-114h-240q-54 0 -74.5 24t-20.5 75v308q0 51 20.5 75t74.5 24h430v-619q0 -51 -20.5 -75t-75.5 -24h-410zM437 569l-131 161l-134 -161h-97l174 204h119l169 -204h-100z
" />
    <glyph glyph-name="Gbreve" unicode="&#x11e;" horiz-adv-x="645" 
d="M166 0q-65 0 -90 29t-25 89v441q0 60 25 89t90 29h418v-135h-352q-20 0 -26 -7t-6 -30v-345q0 -17 6.5 -23.5t25.5 -6.5h217v154h-134v109h276v-393h-425zM528 944q0 -46 -8 -84t-30.5 -65.5t-62.5 -42.5t-104 -15t-104.5 15t-63 42.5t-30.5 65.5t-8 84h62q0 -33 6 -59
t22 -44.5t44 -28t72 -9.5q43 0 71 9.5t43.5 28t22 44.5t6.5 59h62z" />
    <glyph glyph-name="gbreve" unicode="&#x11f;" horiz-adv-x="613" 
d="M62 -212v121h338q17 0 22.5 6t5.5 23v447h-218q-17 0 -22 -6t-5 -22v-216q0 -15 5 -21t22 -6h168v-114h-240q-54 0 -74.5 24t-20.5 75v308q0 51 20.5 75t74.5 24h430v-619q0 -51 -20.5 -75t-75.5 -24h-410zM512 773q0 -46 -8 -84t-30.5 -65.5t-62.5 -42.5t-104 -15
t-104.5 15t-63 42.5t-30.5 65.5t-8 84h62q0 -33 6 -59t22 -44.5t44 -28t72 -9.5q43 0 71 9.5t43.5 28t22 44.5t6.5 59h62z" />
    <glyph glyph-name="Gdotaccent" unicode="&#x120;" horiz-adv-x="645" 
d="M166 0q-65 0 -90 29t-25 89v441q0 60 25 89t90 29h418v-135h-352q-20 0 -26 -7t-6 -30v-345q0 -17 6.5 -23.5t25.5 -6.5h217v154h-134v109h276v-393h-425zM259 737v152h126v-152h-126z" />
    <glyph glyph-name="gdotaccent" unicode="&#x121;" horiz-adv-x="613" 
d="M62 -212v121h338q17 0 22.5 6t5.5 23v447h-218q-17 0 -22 -6t-5 -22v-216q0 -15 5 -21t22 -6h168v-114h-240q-54 0 -74.5 24t-20.5 75v308q0 51 20.5 75t74.5 24h430v-619q0 -51 -20.5 -75t-75.5 -24h-410zM243 566v152h126v-152h-126z" />
    <glyph glyph-name="uni0122" unicode="&#x122;" horiz-adv-x="645" 
d="M166 0q-65 0 -90 29t-25 89v441q0 60 25 89t90 29h418v-135h-352q-20 0 -26 -7t-6 -30v-345q0 -17 6.5 -23.5t25.5 -6.5h217v154h-134v109h276v-393h-425zM245 -256l41 196h113l-56 -196h-98z" />
    <glyph glyph-name="uni0123" unicode="&#x123;" horiz-adv-x="613" 
d="M62 -212v121h338q17 0 22.5 6t5.5 23v447h-218q-17 0 -22 -6t-5 -22v-216q0 -15 5 -21t22 -6h168v-114h-240q-54 0 -74.5 24t-20.5 75v308q0 51 20.5 75t74.5 24h430v-619q0 -51 -20.5 -75t-75.5 -24h-410zM403.003 740.984l-40.998 -195.988h-112.993l55.9971 195.988
h97.9941z" />
    <glyph glyph-name="Hcircumflex" unicode="&#x124;" horiz-adv-x="681" 
d="M624 0h-152v280h-265v-280h-152v677h152v-270h265v270h152v-677zM471 740l-131 161l-134 -161h-97l174 204h119l169 -204h-100z" />
    <glyph glyph-name="hcircumflex" unicode="&#x125;" horiz-adv-x="651" 
d="M459 0v357q0 17 -6 22.5t-23 5.5h-209q-15 0 -21 -5.5t-6 -22.5v-357h-140v718h140v-267q14 29 34.5 42t52.5 13h222q51 0 73 -22.5t22 -76.5v-407h-139zM417 740l-131 161l-134 -161h-97l174 204h119l169 -204h-100z" />
    <glyph glyph-name="Hbar" unicode="&#x126;" horiz-adv-x="681" 
d="M624 0h-152v280h-265v-280h-152v677h152v-91h265v91h152v-677zM472 407v90h-265v-90h265z" />
    <glyph glyph-name="hbar" unicode="&#x127;" horiz-adv-x="651" 
d="M194 564v-113q14 29 34.5 42t52.5 13h222q51 0 73 -22.5t22 -76.5v-407h-139v357q0 17 -6 22.5t-23 5.5h-209q-15 0 -21 -5.5t-6 -22.5v-357h-140v564h-41v89h41v65h140v-65h280v-89h-280z" />
    <glyph glyph-name="Itilde" unicode="&#x128;" horiz-adv-x="270" 
d="M58 0v677h152v-677h-152zM348 820q-21 -19 -53 -27t-58 -8q-30 0 -55.5 7.5t-49 17t-45 17t-43.5 7.5q-30 0 -61 -8.5t-58 -30.5v90q21 19 53 27t58 8t51 -8t49 -17t47.5 -17t45.5 -8q33 0 61.5 8.5t57.5 31.5v-90z" />
    <glyph glyph-name="itilde" unicode="&#x129;" horiz-adv-x="383" 
d="M121 0v506h140v-506h-140zM404 649q-21 -19 -53 -27t-58 -8q-30 0 -55.5 7.5t-49 17t-45 17t-43.5 7.5q-30 0 -61 -8.5t-58 -30.5v90q21 19 53 27t58 8t51 -8t49 -17t47.5 -17t45.5 -8q33 0 61.5 8.5t57.5 31.5v-90z" />
    <glyph glyph-name="Imacron" unicode="&#x12a;" horiz-adv-x="270" 
d="M58 0v677h152v-677h-152zM-94 805v89h461v-89h-461z" />
    <glyph glyph-name="imacron" unicode="&#x12b;" horiz-adv-x="410" 
d="M135 0v506h140v-506h-140zM-24 634v89h461v-89h-461z" />
    <glyph glyph-name="Ibreve" unicode="&#x12c;" horiz-adv-x="270" 
d="M58 0v677h152v-677h-152zM342 944q0 -46 -8 -84t-30.5 -65.5t-62.5 -42.5t-104 -15t-104.5 15t-63 42.5t-30.5 65.5t-8 84h62q0 -33 6 -59t22 -44.5t44 -28t72 -9.5q43 0 71 9.5t43.5 28t22 44.5t6.5 59h62z" />
    <glyph glyph-name="ibreve" unicode="&#x12d;" horiz-adv-x="367" 
d="M113 0v506h140v-506h-140zM390 773q0 -46 -8 -84t-30.5 -65.5t-62.5 -42.5t-104 -15t-104.5 15t-63 42.5t-30.5 65.5t-8 84h62q0 -33 6 -59t22 -44.5t44 -28t72 -9.5q43 0 71 9.5t43.5 28t22 44.5t6.5 59h62z" />
    <glyph glyph-name="Iogonek" unicode="&#x12e;" horiz-adv-x="270" 
d="M32 -256q-26 0 -42 15t-16 50v51q0 34 8.5 52t37.5 33l102 55h-64v677h152v-677l-121 -70q-11 -6 -13.5 -12t-2.5 -20v-31q0 -12 4 -16.5t14 -4.5h119v-102h-178z" />
    <glyph glyph-name="iogonek" unicode="&#x12f;" horiz-adv-x="253" 
d="M18 -256q-26 0 -42 15t-16 50v51q0 34 8.5 52t37.5 33l102 55h-52v506h140v-506l-121 -70q-11 -6 -13.5 -12t-2.5 -20v-31q0 -12 4 -16.5t14 -4.5h119v-102h-178zM56 566v152h141v-152h-141z" />
    <glyph glyph-name="Idotaccent" unicode="&#x130;" horiz-adv-x="270" 
d="M58 0v677h152v-677h-152zM72 737v152h126v-152h-126z" />
    <glyph glyph-name="dotlessi" unicode="&#x131;" horiz-adv-x="253" 
d="M56 0v506h140v-506h-140z" />
    <glyph glyph-name="IJ" unicode="&#x132;" horiz-adv-x="815" 
d="M58 0v677h152v-677h-152zM298 0v137h273q23 0 29.5 7.5t6.5 28.5v372h-118v132h270v-559q0 -60 -25 -89t-89 -29h-347z" />
    <glyph glyph-name="ij" unicode="&#x133;" horiz-adv-x="520" 
d="M56 0v506h140v-506h-140zM56 566v152h141v-152h-141zM179 -212v121h115q16 0 21 6t5 20v571h140v-619q0 -51 -20.5 -75t-74.5 -24h-186zM319 566v152h141v-152h-141z" />
    <glyph glyph-name="Jcircumflex" unicode="&#x134;" horiz-adv-x="545" 
d="M28 0v137h273q23 0 29.5 7.5t6.5 28.5v372h-118v132h270v-559q0 -60 -25 -89t-89 -29h-347zM474 740l-131 161l-134 -161h-97l174 204h119l169 -204h-100z" />
    <glyph glyph-name="jcircumflex" unicode="&#x135;" horiz-adv-x="390" 
d="M9 -212v121h115q16 0 21 6t5 20v571h140v-619q0 -51 -20.5 -75t-74.5 -24h-186zM329 569l-131 161l-134 -161h-97l174 204h119l169 -204h-100z" />
    <glyph glyph-name="uni0136" unicode="&#x136;" horiz-adv-x="706" 
d="M500 0v241q0 29 -8.5 38t-37.5 9h-222v69l244 320h166l-219 -277h108q125 0 125 -138v-262h-156zM55 0v677h152v-677h-152zM276 -256l41 196h113l-56 -196h-98z" />
    <glyph glyph-name="uni0137" unicode="&#x137;" horiz-adv-x="646" 
d="M53 0v718h141v-718h-141zM457 0v168q0 22 -7.5 31t-30.5 9h-200v51l211 247h154l-179 -203h97q95 0 95 -107v-196h-140zM246 -256l41 196h113l-56 -196h-98z" />
    <glyph glyph-name="Lacute" unicode="&#x139;" horiz-adv-x="539" 
d="M508 0h-454v677h152v-540h302v-137zM31 740l149 204h113l-173 -204h-89z" />
    <glyph glyph-name="lacute" unicode="&#x13a;" horiz-adv-x="248" 
d="M54 0v718h140v-718h-140zM24 740l149 204h113l-173 -204h-89z" />
    <glyph glyph-name="uni013B" unicode="&#x13b;" horiz-adv-x="539" 
d="M508 0h-454v677h152v-540h302v-137zM192 -256l41 196h113l-56 -196h-98z" />
    <glyph glyph-name="uni013C" unicode="&#x13c;" horiz-adv-x="248" 
d="M54 0v718h140v-718h-140zM33 -256l41 196h113l-56 -196h-98z" />
    <glyph glyph-name="Lcaron" unicode="&#x13d;" horiz-adv-x="539" 
d="M508 0h-454v677h152v-540h302v-137zM266 469l43 249h128l-59 -249h-112z" />
    <glyph glyph-name="lcaron" unicode="&#x13e;" horiz-adv-x="391" 
d="M54 0v718h140v-718h-140zM220 469l43 249h128l-59 -249h-112z" />
    <glyph glyph-name="Ldot" unicode="&#x13f;" horiz-adv-x="539" 
d="M508 0h-454v677h152v-540h302v-137zM292 303v152h126v-152h-126z" />
    <glyph glyph-name="ldot" unicode="&#x140;" horiz-adv-x="352" 
d="M54 0v718h140v-718h-140zM226 287v152h126v-152h-126z" />
    <glyph glyph-name="Lslash" unicode="&#x141;" horiz-adv-x="552" 
d="M67 0v396l-58 -13v83l58 13v198h152v-163l158 37v-83l-158 -37v-293h302v-138h-454z" />
    <glyph glyph-name="lslash" unicode="&#x142;" horiz-adv-x="281" 
d="M69 0v447l-60 -17v88l60 17v183h142v-143l61 17v-88l-61 -17v-487h-142z" />
    <glyph glyph-name="Nacute" unicode="&#x143;" horiz-adv-x="703" 
d="M545 0l-350 444v-444h-141v677h143l307 -404v404h142v-677h-101zM250 740l149 204h113l-173 -204h-89z" />
    <glyph glyph-name="nacute" unicode="&#x144;" horiz-adv-x="649" 
d="M456 0v357q0 17 -6 22.5t-23 5.5h-209q-15 0 -21 -5.5t-6 -22.5v-357h-140v506h135v-55q25 55 87 55h227q51 0 73 -22.5t22 -76.5v-407h-139zM223 569l149 204h113l-173 -204h-89z" />
    <glyph glyph-name="uni0145" unicode="&#x145;" horiz-adv-x="703" 
d="M545 0l-350 444v-444h-141v677h143l307 -404v404h142v-677h-101zM274 -256l41 196h113l-56 -196h-98z" />
    <glyph glyph-name="uni0146" unicode="&#x146;" horiz-adv-x="649" 
d="M456 0v357q0 17 -6 22.5t-23 5.5h-209q-15 0 -21 -5.5t-6 -22.5v-357h-140v506h135v-55q25 55 87 55h227q51 0 73 -22.5t22 -76.5v-407h-139zM237 -256l41 196h113l-56 -196h-98z" />
    <glyph glyph-name="Ncaron" unicode="&#x147;" horiz-adv-x="703" 
d="M545 0l-350 444v-444h-141v677h143l307 -404v404h142v-677h-101zM288 740q-15 17 -37.5 44.5t-46.5 57.5t-46.5 57.5t-37.5 44.5h100l130 -161l134 161h98l-175 -204h-119z" />
    <glyph glyph-name="ncaron" unicode="&#x148;" horiz-adv-x="649" 
d="M456 0v357q0 17 -6 22.5t-23 5.5h-209q-15 0 -21 -5.5t-6 -22.5v-357h-140v506h135v-55q25 55 87 55h227q51 0 73 -22.5t22 -76.5v-407h-139zM267 569q-15 17 -37.5 44.5t-46.5 57.5t-46.5 57.5t-37.5 44.5h100l130 -161l134 161h98l-175 -204h-119z" />
    <glyph glyph-name="Eng" unicode="&#x14a;" horiz-adv-x="703" 
d="M365 -256v121h115q16 0 21 6t5 20v158l-311 395v-444h-141v677h143l307 -404v404h142v-834q0 -51 -20.5 -75t-74.5 -24h-186z" />
    <glyph glyph-name="eng" unicode="&#x14b;" horiz-adv-x="649" 
d="M314 -256v121h115q16 0 21 6t5 20l1 466q0 17 -6 22.5t-23 5.5h-209q-15 0 -21 -5.5t-6 -22.5v-357h-140v506h135v-55q25 55 87 55h227q51 0 73 -22.5t22 -76.5v-564q0 -51 -20.5 -75t-74.5 -24h-186z" />
    <glyph glyph-name="Omacron" unicode="&#x14c;" horiz-adv-x="668" 
d="M166 0q-65 0 -90 29t-25 89v441q0 60 25 89t90 29h337q64 0 89.5 -29t25.5 -89v-441q0 -60 -25.5 -89t-89.5 -29h-337zM466 506q0 23 -8.5 31t-32.5 8h-189q-20 0 -27 -8t-7 -31v-337q0 -18 7 -26t27 -8h189q24 0 32.5 8t8.5 26v337zM103 805v89h461v-89h-461z" />
    <glyph glyph-name="omacron" unicode="&#x14d;" horiz-adv-x="633" 
d="M144 0q-54 0 -74.5 24t-20.5 75v308q0 51 20.5 75t74.5 24h344q56 0 76 -24t20 -75v-308q0 -51 -20 -75t-76 -24h-344zM444 357q0 17 -6 22.5t-25 5.5h-198q-16 0 -21 -5.5t-5 -22.5v-206q0 -15 5 -21t21 -6h198q19 0 25 6t6 21v206zM86 634v89h461v-89h-461z" />
    <glyph glyph-name="Obreve" unicode="&#x14e;" horiz-adv-x="668" 
d="M166 0q-65 0 -90 29t-25 89v441q0 60 25 89t90 29h337q64 0 89.5 -29t25.5 -89v-441q0 -60 -25.5 -89t-89.5 -29h-337zM466 506q0 23 -8.5 31t-32.5 8h-189q-20 0 -27 -8t-7 -31v-337q0 -18 7 -26t27 -8h189q24 0 32.5 8t8.5 26v337zM539 944q0 -46 -8 -84t-30.5 -65.5
t-62.5 -42.5t-104 -15t-104.5 15t-63 42.5t-30.5 65.5t-8 84h62q0 -33 6 -59t22 -44.5t44 -28t72 -9.5q43 0 71 9.5t43.5 28t22 44.5t6.5 59h62z" />
    <glyph glyph-name="obreve" unicode="&#x14f;" horiz-adv-x="633" 
d="M144 0q-54 0 -74.5 24t-20.5 75v308q0 51 20.5 75t74.5 24h344q56 0 76 -24t20 -75v-308q0 -51 -20 -75t-76 -24h-344zM444 357q0 17 -6 22.5t-25 5.5h-198q-16 0 -21 -5.5t-5 -22.5v-206q0 -15 5 -21t21 -6h198q19 0 25 6t6 21v206zM522 773q0 -46 -8 -84t-30.5 -65.5
t-62.5 -42.5t-104 -15t-104.5 15t-63 42.5t-30.5 65.5t-8 84h62q0 -33 6 -59t22 -44.5t44 -28t72 -9.5q43 0 71 9.5t43.5 28t22 44.5t6.5 59h62z" />
    <glyph glyph-name="Ohungarumlaut" unicode="&#x150;" horiz-adv-x="668" 
d="M166 0q-65 0 -90 29t-25 89v441q0 60 25 89t90 29h337q64 0 89.5 -29t25.5 -89v-441q0 -60 -25.5 -89t-89.5 -29h-337zM466 506q0 23 -8.5 31t-32.5 8h-189q-20 0 -27 -8t-7 -31v-337q0 -18 7 -26t27 -8h189q24 0 32.5 8t8.5 26v337zM343 740l149 204h113l-173 -204h-89z
M123 740l149 204h113l-173 -204h-89z" />
    <glyph glyph-name="ohungarumlaut" unicode="&#x151;" horiz-adv-x="633" 
d="M144 0q-54 0 -74.5 24t-20.5 75v308q0 51 20.5 75t74.5 24h344q56 0 76 -24t20 -75v-308q0 -51 -20 -75t-76 -24h-344zM444 357q0 17 -6 22.5t-25 5.5h-198q-16 0 -21 -5.5t-5 -22.5v-206q0 -15 5 -21t21 -6h198q19 0 25 6t6 21v206zM325 569l149 204h113l-173 -204h-89z
M105 569l149 204h113l-173 -204h-89z" />
    <glyph glyph-name="OE" unicode="&#x152;" horiz-adv-x="965" 
d="M166 0q-65 0 -90 29t-25 89v441q0 60 25 89t90 29h744v-132h-675q-20 0 -26.5 -7t-6.5 -27v-341q0 -20 6.5 -27.5t26.5 -7.5h191v360h156v-110h232v-108h-232v-142h328v-135h-744z" />
    <glyph glyph-name="oe" unicode="&#x153;" horiz-adv-x="995" 
d="M144 0q-54 0 -74.5 24t-20.5 75v308q0 51 20.5 75t74.5 24h712q49 0 67.5 -23.5t18.5 -71.5v-199h-318v84h185v68q0 16 -5 21.5t-20 5.5h-210v-276h349v-115h-779zM433 391h-218q-16 0 -21 -5.5t-5 -22.5v-221q0 -15 5 -21t21 -6h218v276z" />
    <glyph glyph-name="Racute" unicode="&#x154;" horiz-adv-x="663" 
d="M459 0v221q0 18 -6.5 24.5t-26.5 6.5h-219v-252h-152v495h152v-131h208q22 0 28.5 7t6.5 28v110q0 22 -7 29t-29 7h-359v132h430q64 0 90.5 -28.5t26.5 -86.5v-147q0 -52 -24 -73.5t-59 -25.5q19 -1 35.5 -5.5t29 -13.5t20 -24.5t7.5 -37.5v-235h-152zM230 740l149 204
h113l-173 -204h-89z" />
    <glyph glyph-name="racute" unicode="&#x155;" horiz-adv-x="451" 
d="M51 0v506h136v-55q13 29 33.5 42t53.5 13h147v-121h-202q-15 0 -21.5 -5.5t-6.5 -22.5v-357h-140zM124 569l149 204h113l-173 -204h-89z" />
    <glyph glyph-name="uni0156" unicode="&#x156;" horiz-adv-x="663" 
d="M459 0v221q0 18 -6.5 24.5t-26.5 6.5h-219v-252h-152v495h152v-131h208q22 0 28.5 7t6.5 28v110q0 22 -7 29t-29 7h-359v132h430q64 0 90.5 -28.5t26.5 -86.5v-147q0 -52 -24 -73.5t-59 -25.5q19 -1 35.5 -5.5t29 -13.5t20 -24.5t7.5 -37.5v-235h-152zM244 -256l41 196
h113l-56 -196h-98z" />
    <glyph glyph-name="uni0157" unicode="&#x157;" horiz-adv-x="451" 
d="M51 0v506h136v-55q13 29 33.5 42t53.5 13h147v-121h-202q-15 0 -21.5 -5.5t-6.5 -22.5v-357h-140zM24 -256l41 196h113l-56 -196h-98z" />
    <glyph glyph-name="Rcaron" unicode="&#x158;" horiz-adv-x="663" 
d="M459 0v221q0 18 -6.5 24.5t-26.5 6.5h-219v-252h-152v495h152v-131h208q22 0 28.5 7t6.5 28v110q0 22 -7 29t-29 7h-359v132h430q64 0 90.5 -28.5t26.5 -86.5v-147q0 -52 -24 -73.5t-59 -25.5q19 -1 35.5 -5.5t29 -13.5t20 -24.5t7.5 -37.5v-235h-152zM252 740
q-15 17 -37.5 44.5t-46.5 57.5t-46.5 57.5t-37.5 44.5h100l130 -161l134 161h98l-175 -204h-119z" />
    <glyph glyph-name="rcaron" unicode="&#x159;" horiz-adv-x="451" 
d="M51 0v506h136v-55q13 29 33.5 42t53.5 13h147v-121h-202q-15 0 -21.5 -5.5t-6.5 -22.5v-357h-140zM164 569q-15 17 -37.5 44.5t-46.5 57.5t-46.5 57.5t-37.5 44.5h100l130 -161l134 161h98l-175 -204h-119z" />
    <glyph glyph-name="Sacute" unicode="&#x15a;" horiz-adv-x="646" 
d="M52 0v132h361q19 0 25.5 7t6.5 26v94q0 17 -6.5 23t-24.5 6h-267q-50 0 -72.5 25.5t-22.5 70.5v175q0 60 25 89t91 29h421v-129h-359q-16 0 -21.5 -7t-5.5 -25v-89q0 -17 5.5 -22.5t20.5 -5.5h271q50 0 73 -25.5t23 -70.5v-185q0 -60 -25 -89t-90 -29h-429zM222 740
l149 204h113l-173 -204h-89z" />
    <glyph glyph-name="sacute" unicode="&#x15b;" horiz-adv-x="621" 
d="M52 0v116h347q16 0 20.5 5t4.5 19v50q0 11 -4.5 16t-18.5 5h-271q-42 0 -60 19.5t-18 52.5v135q0 45 20 66.5t73 21.5h418v-113h-345q-16 0 -21.5 -6t-5.5 -21v-42q0 -13 5.5 -19t19.5 -6h274q42 0 60.5 -19.5t18.5 -51.5v-140q0 -45 -21 -66.5t-74 -21.5h-422zM209 569
l149 204h113l-173 -204h-89z" />
    <glyph glyph-name="Scircumflex" unicode="&#x15c;" horiz-adv-x="646" 
d="M52 0v132h361q19 0 25.5 7t6.5 26v94q0 17 -6.5 23t-24.5 6h-267q-50 0 -72.5 25.5t-22.5 70.5v175q0 60 25 89t91 29h421v-129h-359q-16 0 -21.5 -7t-5.5 -25v-89q0 -17 5.5 -22.5t20.5 -5.5h271q50 0 73 -25.5t23 -70.5v-185q0 -60 -25 -89t-90 -29h-429zM454 740
l-131 161l-134 -161h-97l174 204h119l169 -204h-100z" />
    <glyph glyph-name="scircumflex" unicode="&#x15d;" horiz-adv-x="621" 
d="M52 0v116h347q16 0 20.5 5t4.5 19v50q0 11 -4.5 16t-18.5 5h-271q-42 0 -60 19.5t-18 52.5v135q0 45 20 66.5t73 21.5h418v-113h-345q-16 0 -21.5 -6t-5.5 -21v-42q0 -13 5.5 -19t19.5 -6h274q42 0 60.5 -19.5t18.5 -51.5v-140q0 -45 -21 -66.5t-74 -21.5h-422zM441 569
l-131 161l-134 -161h-97l174 204h119l169 -204h-100z" />
    <glyph glyph-name="Scedilla" unicode="&#x15e;" horiz-adv-x="646" 
d="M52 0v132h361q19 0 25.5 7t6.5 26v94q0 17 -6.5 23t-24.5 6h-267q-50 0 -72.5 25.5t-22.5 70.5v175q0 60 25 89t91 29h421v-129h-359q-16 0 -21.5 -7t-5.5 -25v-89q0 -17 5.5 -22.5t20.5 -5.5h271q50 0 73 -25.5t23 -70.5v-185q0 -60 -25 -89t-90 -29h-429zM246 -256
l41 196h113l-56 -196h-98z" />
    <glyph glyph-name="scedilla" unicode="&#x15f;" horiz-adv-x="621" 
d="M52 0v116h347q16 0 20.5 5t4.5 19v50q0 11 -4.5 16t-18.5 5h-271q-42 0 -60 19.5t-18 52.5v135q0 45 20 66.5t73 21.5h418v-113h-345q-16 0 -21.5 -6t-5.5 -21v-42q0 -13 5.5 -19t19.5 -6h274q42 0 60.5 -19.5t18.5 -51.5v-140q0 -45 -21 -66.5t-74 -21.5h-422zM233 -256
l41 196h113l-56 -196h-98z" />
    <glyph glyph-name="Scaron" unicode="&#x160;" horiz-adv-x="646" 
d="M52 0v132h361q19 0 25.5 7t6.5 26v94q0 17 -6.5 23t-24.5 6h-267q-50 0 -72.5 25.5t-22.5 70.5v175q0 60 25 89t91 29h421v-129h-359q-16 0 -21.5 -7t-5.5 -25v-89q0 -17 5.5 -22.5t20.5 -5.5h271q50 0 73 -25.5t23 -70.5v-185q0 -60 -25 -89t-90 -29h-429zM270 740
q-15 17 -37.5 44.5t-46.5 57.5t-46.5 57.5t-37.5 44.5h100l130 -161l134 161h98l-175 -204h-119z" />
    <glyph glyph-name="scaron" unicode="&#x161;" horiz-adv-x="621" 
d="M52 0v116h347q16 0 20.5 5t4.5 19v50q0 11 -4.5 16t-18.5 5h-271q-42 0 -60 19.5t-18 52.5v135q0 45 20 66.5t73 21.5h418v-113h-345q-16 0 -21.5 -6t-5.5 -21v-42q0 -13 5.5 -19t19.5 -6h274q42 0 60.5 -19.5t18.5 -51.5v-140q0 -45 -21 -66.5t-74 -21.5h-422zM247 569
q-15 17 -37.5 44.5t-46.5 57.5t-46.5 57.5t-37.5 44.5h100l130 -161l134 161h98l-175 -204h-119z" />
    <glyph glyph-name="uni0162" unicode="&#x162;" horiz-adv-x="533" 
d="M341 0h-152v544h-164v133h481v-133h-165v-544zM173 -256l41 196h113l-56 -196h-98z" />
    <glyph glyph-name="uni0163" unicode="&#x163;" horiz-adv-x="342" 
d="M146 0q-54 0 -74.5 24t-20.5 75v548h140v-141h122v-110h-122v-259q0 -17 5.5 -22t20.5 -5h92v-110h-163zM94 -256l41 196h113l-56 -196h-98z" />
    <glyph glyph-name="Tcaron" unicode="&#x164;" horiz-adv-x="533" 
d="M341 0h-152v544h-164v133h481v-133h-165v-544zM205 740q-15 17 -37.5 44.5t-46.5 57.5t-46.5 57.5t-37.5 44.5h100l130 -161l134 161h98l-175 -204h-119z" />
    <glyph glyph-name="tcaron" unicode="&#x165;" horiz-adv-x="493" 
d="M146 0q-54 0 -74.5 24t-20.5 75v548h140v-141h122v-110h-122v-259q0 -17 5.5 -22t20.5 -5h92v-110h-163zM322 469l43 249h128l-59 -249h-112z" />
    <glyph glyph-name="Tbar" unicode="&#x166;" horiz-adv-x="533" 
d="M341 254v-254h-152v254h-84v84h84v206h-164v133h481v-133h-165v-206h86v-84h-86z" />
    <glyph glyph-name="tbar" unicode="&#x167;" horiz-adv-x="342" 
d="M191 212v-75q0 -17 5.5 -22t20.5 -5h92v-110h-163q-54 0 -74.5 24t-20.5 75v548h140v-141h122v-110h-122v-100h111v-84h-111z" />
    <glyph glyph-name="Utilde" unicode="&#x168;" 
d="M169 0q-65 0 -90.5 29t-25.5 89v559h152v-506q0 -23 7 -29.5t28 -6.5h200q20 0 27.5 6.5t7.5 29.5v506h146v-559q0 -60 -25.5 -89t-89.5 -29h-337zM549 820q-21 -19 -53 -27t-58 -8q-30 0 -55.5 7.5t-49 17t-45 17t-43.5 7.5q-30 0 -61 -8.5t-58 -30.5v90q21 19 53 27
t58 8t51 -8t49 -17t47.5 -17t45.5 -8q33 0 61.5 8.5t57.5 31.5v-90z" />
    <glyph glyph-name="utilde" unicode="&#x169;" horiz-adv-x="640" 
d="M453 0v54q-13 -29 -34 -41.5t-53 -12.5h-220q-50 0 -72.5 22.5t-22.5 76.5v407h140v-357q0 -17 5.5 -23t22.5 -6h201q16 0 22 6t6 23v357h140v-506h-135zM531 649q-21 -19 -53 -27t-58 -8q-30 0 -55.5 7.5t-49 17t-45 17t-43.5 7.5q-30 0 -61 -8.5t-58 -30.5v90
q21 19 53 27t58 8t51 -8t49 -17t47.5 -17t45.5 -8q33 0 61.5 8.5t57.5 31.5v-90z" />
    <glyph glyph-name="Umacron" unicode="&#x16a;" 
d="M169 0q-65 0 -90.5 29t-25.5 89v559h152v-506q0 -23 7 -29.5t28 -6.5h200q20 0 27.5 6.5t7.5 29.5v506h146v-559q0 -60 -25.5 -89t-89.5 -29h-337zM107 805v89h461v-89h-461z" />
    <glyph glyph-name="umacron" unicode="&#x16b;" horiz-adv-x="640" 
d="M453 0v54q-13 -29 -34 -41.5t-53 -12.5h-220q-50 0 -72.5 22.5t-22.5 76.5v407h140v-357q0 -17 5.5 -23t22.5 -6h201q16 0 22 6t6 23v357h140v-506h-135zM89 634v89h461v-89h-461z" />
    <glyph glyph-name="Ubreve" unicode="&#x16c;" 
d="M169 0q-65 0 -90.5 29t-25.5 89v559h152v-506q0 -23 7 -29.5t28 -6.5h200q20 0 27.5 6.5t7.5 29.5v506h146v-559q0 -60 -25.5 -89t-89.5 -29h-337zM543 944q0 -46 -8 -84t-30.5 -65.5t-62.5 -42.5t-104 -15t-104.5 15t-63 42.5t-30.5 65.5t-8 84h62q0 -33 6 -59t22 -44.5
t44 -28t72 -9.5q43 0 71 9.5t43.5 28t22 44.5t6.5 59h62z" />
    <glyph glyph-name="ubreve" unicode="&#x16d;" horiz-adv-x="640" 
d="M453 0v54q-13 -29 -34 -41.5t-53 -12.5h-220q-50 0 -72.5 22.5t-22.5 76.5v407h140v-357q0 -17 5.5 -23t22.5 -6h201q16 0 22 6t6 23v357h140v-506h-135zM525 773q0 -46 -8 -84t-30.5 -65.5t-62.5 -42.5t-104 -15t-104.5 15t-63 42.5t-30.5 65.5t-8 84h62q0 -33 6 -59
t22 -44.5t44 -28t72 -9.5q43 0 71 9.5t43.5 28t22 44.5t6.5 59h62z" />
    <glyph glyph-name="Uring" unicode="&#x16e;" 
d="M169 0q-65 0 -90.5 29t-25.5 89v559h152v-506q0 -23 7 -29.5t28 -6.5h200q20 0 27.5 6.5t7.5 29.5v506h146v-559q0 -60 -25.5 -89t-89.5 -29h-337zM278 717q-33 0 -46 14.5t-13 46.5v105q0 32 13 46.5t46 14.5h117q35 0 47.5 -14.5t12.5 -46.5v-105q0 -32 -12.5 -46.5
t-47.5 -14.5h-117zM403 878q0 12 -4 16.5t-17 4.5h-92q-11 0 -15.5 -4.5t-4.5 -16.5v-91q0 -14 4.5 -18t15.5 -4h92q13 0 17 4t4 18v91z" />
    <glyph glyph-name="uring" unicode="&#x16f;" horiz-adv-x="640" 
d="M453 0v54q-13 -29 -34 -41.5t-53 -12.5h-220q-50 0 -72.5 22.5t-22.5 76.5v407h140v-357q0 -17 5.5 -23t22.5 -6h201q16 0 22 6t6 23v357h140v-506h-135zM261 546q-33 0 -46 14.5t-13 46.5v105q0 32 13 46.5t46 14.5h117q35 0 47.5 -14.5t12.5 -46.5v-105
q0 -32 -12.5 -46.5t-47.5 -14.5h-117zM386 707q0 12 -4 16.5t-17 4.5h-92q-11 0 -15.5 -4.5t-4.5 -16.5v-91q0 -14 4.5 -18t15.5 -4h92q13 0 17 4t4 18v91z" />
    <glyph glyph-name="Uhungarumlaut" unicode="&#x170;" 
d="M169 0q-65 0 -90.5 29t-25.5 89v559h152v-506q0 -23 7 -29.5t28 -6.5h200q20 0 27.5 6.5t7.5 29.5v506h146v-559q0 -60 -25.5 -89t-89.5 -29h-337zM346 740l149 204h113l-173 -204h-89zM126 740l149 204h113l-173 -204h-89z" />
    <glyph glyph-name="uhungarumlaut" unicode="&#x171;" horiz-adv-x="640" 
d="M453 0v54q-13 -29 -34 -41.5t-53 -12.5h-220q-50 0 -72.5 22.5t-22.5 76.5v407h140v-357q0 -17 5.5 -23t22.5 -6h201q16 0 22 6t6 23v357h140v-506h-135zM329 569l149 204h113l-173 -204h-89zM109 569l149 204h113l-173 -204h-89z" />
    <glyph glyph-name="Uogonek" unicode="&#x172;" 
d="M257 -256q-26 0 -42 15t-16 50v51q0 34 8.5 52t37.5 33l102 55h-178q-65 0 -90.5 29t-25.5 89v559h152v-506q0 -23 7 -29.5t28 -6.5h200q20 0 27.5 6.5t7.5 29.5v506h146v-559q0 -60 -25.5 -89t-89.5 -29h-71l-121 -70q-11 -6 -13.5 -12t-2.5 -20v-31q0 -12 4 -16.5
t14 -4.5h119v-102h-178z" />
    <glyph glyph-name="uogonek" unicode="&#x173;" horiz-adv-x="640" 
d="M410 -256q-26 0 -42 15t-16 50v51q0 34 8.5 52t37.5 33l102 55h-47v54q-13 -29 -34 -41.5t-53 -12.5h-220q-50 0 -72.5 22.5t-22.5 76.5v407h140v-357q0 -17 5.5 -23t22.5 -6h201q16 0 22 6t6 23v357h140v-506l-121 -70q-11 -6 -13.5 -12t-2.5 -20v-31q0 -12 4 -16.5
t14 -4.5h119v-102h-178z" />
    <glyph glyph-name="Wcircumflex" unicode="&#x174;" horiz-adv-x="998" 
d="M626 0l-127 483l-144 -483h-170l-169 677h156l116 -496l140 496h152l126 -495l126 495h149l-184 -677h-171zM630 740l-131 161l-134 -161h-97l174 204h119l169 -204h-100z" />
    <glyph glyph-name="wcircumflex" unicode="&#x175;" horiz-adv-x="901" 
d="M553 0l-105 351l-118 -351h-174l-142 506h154l90 -362l113 362h165l104 -361l99 361h148l-157 -506h-177zM581 569l-131 161l-134 -161h-97l174 204h119l169 -204h-100z" />
    <glyph glyph-name="Ycircumflex" unicode="&#x176;" horiz-adv-x="617" 
d="M232 0v279l-219 398h159l139 -267l140 267h152l-219 -398v-279h-152zM439 740l-131 161l-134 -161h-97l174 204h119l169 -204h-100z" />
    <glyph glyph-name="ycircumflex" unicode="&#x177;" horiz-adv-x="610" 
d="M61 -212v121h336q17 0 22.5 6t5.5 23v62h-288q-54 0 -74.5 24t-20.5 75v407h140v-363q0 -16 5.5 -22.5t22.5 -6.5h215v392h141v-619q0 -51 -21 -75t-76 -24h-408zM436 569l-131 161l-134 -161h-97l174 204h119l169 -204h-100z" />
    <glyph glyph-name="Ydieresis" unicode="&#x178;" horiz-adv-x="617" 
d="M232 0v279l-219 398h159l139 -267l140 267h152l-219 -398v-279h-152zM389 737v152h126v-152h-126zM102 737v152h126v-152h-126z" />
    <glyph glyph-name="Zacute" unicode="&#x179;" horiz-adv-x="602" 
d="M49 0v123l321 421h-314v133h497v-117l-313 -425h313v-135h-504zM200 740l149 204h113l-173 -204h-89z" />
    <glyph glyph-name="zacute" unicode="&#x17a;" horiz-adv-x="571" 
d="M47 0v111l289 277h-288v118h475v-100l-283 -286h283v-120h-476zM184 569l149 204h113l-173 -204h-89z" />
    <glyph glyph-name="Zdotaccent" unicode="&#x17b;" horiz-adv-x="602" 
d="M49 0v123l321 421h-314v133h497v-117l-313 -425h313v-135h-504zM243 737v152h126v-152h-126z" />
    <glyph glyph-name="zdotaccent" unicode="&#x17c;" horiz-adv-x="571" 
d="M47 0v111l289 277h-288v118h475v-100l-283 -286h283v-120h-476zM222 566v152h126v-152h-126z" />
    <glyph glyph-name="Zcaron" unicode="&#x17d;" horiz-adv-x="602" 
d="M49 0v123l321 421h-314v133h497v-117l-313 -425h313v-135h-504zM238 740q-15 17 -37.5 44.5t-46.5 57.5t-46.5 57.5t-37.5 44.5h100l130 -161l134 161h98l-175 -204h-119z" />
    <glyph glyph-name="zcaron" unicode="&#x17e;" horiz-adv-x="571" 
d="M47 0v111l289 277h-288v118h475v-100l-283 -286h283v-120h-476zM228 569q-15 17 -37.5 44.5t-46.5 57.5t-46.5 57.5t-37.5 44.5h100l130 -161l134 161h98l-175 -204h-119z" />
    <glyph glyph-name="florin" unicode="&#x192;" horiz-adv-x="453" 
d="M18 -168v94h24q42 0 60.5 18.5t26.5 64.5l59 368h-72v89h86l12 63q7 40 20.5 68.5t36.5 46t57 25.5t84 8h27v-94h-35q-64 0 -73 -59l-9 -58h91v-89h-105l-60 -377q-8 -47 -21 -79t-36.5 -51.5t-58.5 -28.5t-86 -9h-28z" />
    <glyph glyph-name="uni0218" unicode="&#x218;" horiz-adv-x="646" 
d="M52 0v132h361q19 0 25.5 7t6.5 26v94q0 17 -6.5 23t-24.5 6h-267q-50 0 -72.5 25.5t-22.5 70.5v175q0 60 25 89t91 29h421v-129h-359q-16 0 -21.5 -7t-5.5 -25v-89q0 -17 5.5 -22.5t20.5 -5.5h271q50 0 73 -25.5t23 -70.5v-185q0 -60 -25 -89t-90 -29h-429zM246 -256
l41 196h113l-56 -196h-98z" />
    <glyph glyph-name="uni0219" unicode="&#x219;" horiz-adv-x="621" 
d="M52 0v116h347q16 0 20.5 5t4.5 19v50q0 11 -4.5 16t-18.5 5h-271q-42 0 -60 19.5t-18 52.5v135q0 45 20 66.5t73 21.5h418v-113h-345q-16 0 -21.5 -6t-5.5 -21v-42q0 -13 5.5 -19t19.5 -6h274q42 0 60.5 -19.5t18.5 -51.5v-140q0 -45 -21 -66.5t-74 -21.5h-422zM233 -256
l41 196h113l-56 -196h-98z" />
    <glyph glyph-name="uni021A" unicode="&#x21a;" horiz-adv-x="533" 
d="M341 0h-152v544h-164v133h481v-133h-165v-544zM173 -256l41 196h113l-56 -196h-98z" />
    <glyph glyph-name="uni021B" unicode="&#x21b;" horiz-adv-x="342" 
d="M146 0q-54 0 -74.5 24t-20.5 75v548h140v-141h122v-110h-122v-259q0 -17 5.5 -22t20.5 -5h92v-110h-163zM94 -256l41 196h113l-56 -196h-98z" />
    <glyph glyph-name="uni0237" unicode="&#x237;" horiz-adv-x="267" 
d="M-74 -212v121h115q16 0 21 6t5 20v571h140v-619q0 -51 -20.5 -75t-74.5 -24h-186z" />
    <glyph glyph-name="circumflex" unicode="&#x2c6;" horiz-adv-x="572" 
d="M417 569l-131 161l-134 -161h-97l174 204h119l169 -204h-100z" />
    <glyph glyph-name="caron" unicode="&#x2c7;" horiz-adv-x="572" 
d="M223 569q-15 17 -37.5 44.5t-46.5 57.5t-46.5 57.5t-37.5 44.5h100l130 -161l134 161h98l-175 -204h-119z" />
    <glyph glyph-name="uni02C9" unicode="&#x2c9;" horiz-adv-x="571" 
d="M55 634v89h461v-89h-461z" />
    <glyph glyph-name="breve" unicode="&#x2d8;" horiz-adv-x="521" 
d="M466 773q0 -46 -8 -84t-30.5 -65.5t-62.5 -42.5t-104 -15t-104.5 15t-63 42.5t-30.5 65.5t-8 84h62q0 -33 6 -59t22 -44.5t44 -28t72 -9.5q43 0 71 9.5t43.5 28t22 44.5t6.5 59h62z" />
    <glyph glyph-name="dotaccent" unicode="&#x2d9;" horiz-adv-x="248" 
d="M56 566v152h126v-152h-126z" />
    <glyph glyph-name="ring" unicode="&#x2da;" horiz-adv-x="347" 
d="M114 546q-33 0 -46 14.5t-13 46.5v105q0 32 13 46.5t46 14.5h117q35 0 47.5 -14.5t12.5 -46.5v-105q0 -32 -12.5 -46.5t-47.5 -14.5h-117zM239 707q0 12 -4 16.5t-17 4.5h-92q-11 0 -15.5 -4.5t-4.5 -16.5v-91q0 -14 4.5 -18t15.5 -4h92q13 0 17 4t4 18v91z" />
    <glyph glyph-name="ogonek" unicode="&#x2db;" horiz-adv-x="333" 
d="M98 -256q-26 0 -42 15t-16 50v51q0 34 8.5 52t37.5 33l102 55h88l-121 -70q-11 -6 -13.5 -12t-2.5 -20v-31q0 -12 4 -16.5t14 -4.5h119v-102h-178z" />
    <glyph glyph-name="tilde" unicode="&#x2dc;" horiz-adv-x="533" 
d="M478 649q-21 -19 -53 -27t-58 -8q-30 0 -55.5 7.5t-49 17t-45 17t-43.5 7.5q-30 0 -61 -8.5t-58 -30.5v90q21 19 53 27t58 8t51 -8t49 -17t47.5 -17t45.5 -8q33 0 61.5 8.5t57.5 31.5v-90z" />
    <glyph glyph-name="hungarumlaut" unicode="&#x2dd;" horiz-adv-x="593" 
d="M275 569l149 204h113l-173 -204h-89zM55 569l149 204h113l-173 -204h-89z" />
    <glyph glyph-name="uni037E" unicode="&#x37e;" horiz-adv-x="263" 
d="M71 356v151h128v-151h-128zM28 -98l43 249h128l-59 -249h-112z" />
    <glyph glyph-name="uni0394" unicode="&#x394;" horiz-adv-x="636" 
d="M16 0l223 677h172l208 -677h-603zM320 506l-122 -368h236z" />
    <glyph glyph-name="uni03A9" unicode="&#x3a9;" horiz-adv-x="688" 
d="M371 0v123l85 115q12 16 18.5 36t6.5 52v177q0 24 -7.5 33t-30.5 9h-201q-20 0 -27.5 -9t-7.5 -33v-177q0 -32 6.5 -52t18.5 -36l84 -115v-123h-256v125h136l-97 104q-14 15 -22 27.5t-13 27.5t-6.5 34.5t-1.5 47.5v193q0 60 25.5 89t90.5 29h345q65 0 90 -29t25 -89
v-193q0 -28 -1.5 -47.5t-6.5 -34.5t-13.5 -27.5t-21.5 -27.5l-97 -104h136v-125h-257z" />
    <glyph glyph-name="uni03BC" unicode="&#x3bc;" horiz-adv-x="585" 
d="M54 -212v718h139v-383h174q15 0 21 7.5t6 24.5v351h136v-407q0 -51 -20 -75t-76 -24h-241v-212h-139z" />
    <glyph glyph-name="pi" unicode="&#x3c0;" horiz-adv-x="626" 
d="M470 0q-54 0 -74.5 24t-20.5 75v298h-193v-397h-126v506h445v-374q0 -20 6 -26t23 -6h72v-100h-132z" />
    <glyph glyph-name="Wgrave" unicode="&#x1e80;" horiz-adv-x="998" 
d="M626 0l-127 483l-144 -483h-170l-169 677h156l116 -496l140 496h152l126 -495l126 495h149l-184 -677h-171zM511 740l-173 204h113l149 -204h-89z" />
    <glyph glyph-name="wgrave" unicode="&#x1e81;" horiz-adv-x="901" 
d="M553 0l-105 351l-118 -351h-174l-142 506h154l90 -362l113 362h165l104 -361l99 361h148l-157 -506h-177zM462 569l-173 204h113l149 -204h-89z" />
    <glyph glyph-name="Wacute" unicode="&#x1e82;" horiz-adv-x="998" 
d="M626 0l-127 483l-144 -483h-170l-169 677h156l116 -496l140 496h152l126 -495l126 495h149l-184 -677h-171zM398 740l149 204h113l-173 -204h-89z" />
    <glyph glyph-name="wacute" unicode="&#x1e83;" horiz-adv-x="901" 
d="M553 0l-105 351l-118 -351h-174l-142 506h154l90 -362l113 362h165l104 -361l99 361h148l-157 -506h-177zM349 569l149 204h113l-173 -204h-89z" />
    <glyph glyph-name="Wdieresis" unicode="&#x1e84;" horiz-adv-x="998" 
d="M626 0l-127 483l-144 -483h-170l-169 677h156l116 -496l140 496h152l126 -495l126 495h149l-184 -677h-171zM579 737v152h126v-152h-126zM292 737v152h126v-152h-126z" />
    <glyph glyph-name="wdieresis" unicode="&#x1e85;" horiz-adv-x="901" 
d="M553 0l-105 351l-118 -351h-174l-142 506h154l90 -362l113 362h165l104 -361l99 361h148l-157 -506h-177zM531 566v152h126v-152h-126zM244 566v152h126v-152h-126z" />
    <glyph glyph-name="Ygrave" unicode="&#x1ef2;" horiz-adv-x="617" 
d="M232 0v279l-219 398h159l139 -267l140 267h152l-219 -398v-279h-152zM320 740l-173 204h113l149 -204h-89z" />
    <glyph glyph-name="ygrave" unicode="&#x1ef3;" horiz-adv-x="610" 
d="M61 -212v121h336q17 0 22.5 6t5.5 23v62h-288q-54 0 -74.5 24t-20.5 75v407h140v-363q0 -16 5.5 -22.5t22.5 -6.5h215v392h141v-619q0 -51 -21 -75t-76 -24h-408zM317 569l-173 204h113l149 -204h-89z" />
    <glyph glyph-name="endash" unicode="&#x2013;" horiz-adv-x="695" 
d="M31 296v95h631v-95h-631z" />
    <glyph glyph-name="emdash" unicode="&#x2014;" horiz-adv-x="1150" 
d="M31 296v95h1087v-95h-1087z" />
    <glyph glyph-name="quoteleft" unicode="&#x2018;" horiz-adv-x="259" 
d="M115 469l-59 249h127l44 -249h-112z" />
    <glyph glyph-name="quoteright" unicode="&#x2019;" horiz-adv-x="259" 
d="M31 469l43 249h128l-59 -249h-112z" />
    <glyph glyph-name="quotesinglbase" unicode="&#x201a;" horiz-adv-x="259" 
d="M31 -98l43 249h128l-59 -249h-112z" />
    <glyph glyph-name="quotedblleft" unicode="&#x201c;" horiz-adv-x="518" 
d="M115 469l-59 249h127l44 -249h-112zM374 469l-59 249h127l44 -249h-112z" />
    <glyph glyph-name="quotedblright" unicode="&#x201d;" horiz-adv-x="518" 
d="M31 469l43 249h128l-59 -249h-112zM290 469l43 249h128l-59 -249h-112z" />
    <glyph glyph-name="quotedblbase" unicode="&#x201e;" horiz-adv-x="518" 
d="M31 -98l43 249h128l-59 -249h-112zM290 -98l43 249h128l-59 -249h-112z" />
    <glyph glyph-name="dagger" unicode="&#x2020;" horiz-adv-x="522" 
d="M225 -1v487h-170v68h170v123h80v-123h162v-68h-162v-487h-80z" />
    <glyph glyph-name="daggerdbl" unicode="&#x2021;" horiz-adv-x="523" 
d="M304 123v-123h-80v123h-169v67h169v295h-169v69h169v123h80v-123h162v-69h-162v-295h162v-67h-162z" />
    <glyph glyph-name="bullet" unicode="&#x2022;" horiz-adv-x="314" 
d="M109 228q-30 0 -42 13.5t-12 41.5v99q0 29 12 41.5t42 12.5h97q30 0 41.5 -12.5t11.5 -41.5v-99q0 -28 -11.5 -41.5t-41.5 -13.5h-97z" />
    <glyph glyph-name="ellipsis" unicode="&#x2026;" horiz-adv-x="1195" 
d="M56 0v151h128v-151h-128zM534 0v151h128v-151h-128zM1012 0v151h128v-151h-128z" />
    <glyph glyph-name="perthousand" unicode="&#x2030;" horiz-adv-x="1075" 
d="M106 349q-33 0 -46 14.5t-13 44.5v220q0 30 13 44.5t46 14.5h161q33 0 46 -14.5t13 -44.5v-220q0 -30 -13 -44.5t-46 -14.5h-161zM238 591q0 17 -17 17h-71q-15 0 -15 -16v-146q0 -15 15 -15h71q17 0 17 15v145zM137 0l408 677h80l-408 -677h-80zM494 -10q-33 0 -46 14.5
t-13 44.5v220q0 30 13 44.5t46 14.5h161q33 0 46 -14.5t13 -44.5v-220q0 -30 -13 -44.5t-46 -14.5h-161zM626 232q0 17 -17 17h-71q-15 0 -15 -16v-146q0 -15 15 -15h71q17 0 17 15v145zM809 -10q-33 0 -46 14.5t-13 44.5v220q0 30 13 44.5t46 14.5h161q33 0 46 -14.5
t13 -44.5v-220q0 -30 -13 -44.5t-46 -14.5h-161zM941 232q0 17 -17 17h-71q-15 0 -15 -16v-146q0 -15 15 -15h71q17 0 17 15v145z" />
    <glyph glyph-name="guilsinglleft" unicode="&#x2039;" horiz-adv-x="267" 
d="M30 257v120l204 168v-109l-153 -121l153 -125v-106z" />
    <glyph glyph-name="guilsinglright" unicode="&#x203a;" horiz-adv-x="267" 
d="M30 84v109l153 120l-153 125v107l204 -174v-120z" />
    <glyph glyph-name="fraction" unicode="&#x2044;" horiz-adv-x="193" 
d="M-147 0l408 677h80l-408 -677h-80z" />
    <glyph glyph-name="uni2070" unicode="&#x2070;" horiz-adv-x="355" 
d="M97 349q-33 0 -46 14.5t-13 44.5v220q0 30 13 44.5t46 14.5h161q33 0 46 -14.5t13 -44.5v-220q0 -30 -13 -44.5t-46 -14.5h-161zM229 591q0 17 -17 17h-71q-15 0 -15 -16v-146q0 -15 15 -15h71q17 0 17 15v145z" />
    <glyph glyph-name="uni2074" unicode="&#x2074;" horiz-adv-x="341" 
d="M189 349v62h-160v70l120 206h121v-206h42v-70h-42v-62h-81zM189 612l-80 -131h80v131z" />
    <glyph glyph-name="uni2075" unicode="&#x2075;" horiz-adv-x="355" 
d="M99 349q-32 0 -45 14t-13 43v53h86v-23q0 -15 14 -15h71q9 0 12 3.5t3 11.5v45q0 14 -13 14h-173v192h265v-76h-177v-52h138q25 0 36.5 -12.5t11.5 -35.5v-103q0 -30 -12.5 -44.5t-45.5 -14.5h-158z" />
    <glyph glyph-name="uni2076" unicode="&#x2076;" horiz-adv-x="351" 
d="M97 349q-34 0 -46.5 14.5t-12.5 44.5v220q0 30 12.5 44.5t46.5 14.5h155q32 0 46 -14t14 -43v-47h-84v19q0 16 -16 16h-74q-9 0 -12 -3.5t-3 -12.5v-53h141q26 0 37 -12.5t11 -35.5v-93q0 -30 -12.5 -44.5t-45.5 -14.5h-157zM230 478q0 13 -14 13h-93v-51q0 -10 3 -14
t12 -4h77q9 0 12 4t3 14v38z" />
    <glyph glyph-name="uni2077" unicode="&#x2077;" horiz-adv-x="305" 
d="M48 349l131 262h-152v76h246v-62l-129 -276h-96z" />
    <glyph glyph-name="uni2078" unicode="&#x2078;" horiz-adv-x="352" 
d="M96 349q-32 0 -45 14t-13 43v81q0 19 11.5 27t29.5 10q-18 2 -28.5 11.5t-10.5 30.5v64q0 29 14 43t46 14h151q32 0 46 -14t14 -43v-64q0 -21 -10.5 -30.5t-27.5 -11.5q17 -2 28.5 -10t11.5 -27v-81q0 -29 -13 -43t-45 -14h-159zM227 603q0 15 -16 15h-71q-15 0 -15 -15
v-43q0 -13 14 -13h73q15 0 15 13v43zM227 482q0 13 -15 13h-73q-15 0 -15 -13v-46q0 -15 15 -15h73q15 0 15 15v46z" />
    <glyph glyph-name="uni2079" unicode="&#x2079;" horiz-adv-x="354" 
d="M98 349q-32 0 -45 14t-13 43v51h85v-20q0 -10 3.5 -13t13.5 -3h73q9 0 12 3t3 13v48h-142q-26 0 -37 12.5t-11 35.5v95q0 30 12.5 44.5t45.5 14.5h158q34 0 46.5 -14.5t12.5 -44.5v-220q0 -30 -12.5 -44.5t-46.5 -14.5h-158zM230 597q0 11 -3 14.5t-12 3.5h-78
q-8 0 -11.5 -3.5t-3.5 -14.5v-41q0 -14 14 -14h94v55z" />
    <glyph glyph-name="uni2080" unicode="&#x2080;" horiz-adv-x="355" 
d="M97 -10q-33 0 -46 14.5t-13 44.5v220q0 30 13 44.5t46 14.5h161q33 0 46 -14.5t13 -44.5v-220q0 -30 -13 -44.5t-46 -14.5h-161zM229 232q0 17 -17 17h-71q-15 0 -15 -16v-146q0 -15 15 -15h71q17 0 17 15v145z" />
    <glyph glyph-name="uni2081" unicode="&#x2081;" horiz-adv-x="191" 
d="M63 -10v262h-39v76h127v-338h-88z" />
    <glyph glyph-name="uni2082" unicode="&#x2082;" horiz-adv-x="355" 
d="M41 -10v132q0 35 13 50.5t49 15.5h111q14 0 14 15v40q0 9 -3 12.5t-12 3.5h-73q-16 0 -16 -16v-19h-84v47q0 29 14 43t46 14h156q33 0 46 -14.5t13 -44.5v-90q0 -28 -12.5 -41.5t-41.5 -13.5h-118q-14 0 -14 -17v-43h186v-74h-274z" />
    <glyph glyph-name="uni2083" unicode="&#x2083;" horiz-adv-x="346" 
d="M90 -10q-32 0 -45 14t-13 43v53h86v-23q0 -15 15 -15h73q15 0 15 15v46q0 12 -15 12h-63v54h63q15 0 15 13v42q0 15 -16 15h-71q-15 0 -15 -15v-20h-85v47q0 29 14 43t46 14h151q32 0 46 -14t14 -43v-64q0 -21 -10.5 -30.5t-27.5 -11.5q17 -2 28.5 -10t11.5 -27v-81
q0 -29 -13 -43t-45 -14h-159z" />
    <glyph glyph-name="uni2084" unicode="&#x2084;" horiz-adv-x="341" 
d="M189 -10v62h-160v70l120 206h121v-206h42v-70h-42v-62h-81zM189 253l-80 -131h80v131z" />
    <glyph glyph-name="uni2085" unicode="&#x2085;" horiz-adv-x="355" 
d="M99 -10q-32 0 -45 14t-13 43v53h86v-23q0 -15 14 -15h71q9 0 12 3.5t3 11.5v45q0 14 -13 14h-173v192h265v-76h-177v-52h138q25 0 36.5 -12.5t11.5 -35.5v-103q0 -30 -12.5 -44.5t-45.5 -14.5h-158z" />
    <glyph glyph-name="uni2086" unicode="&#x2086;" horiz-adv-x="351" 
d="M97 -10q-34 0 -46.5 14.5t-12.5 44.5v220q0 30 12.5 44.5t46.5 14.5h155q32 0 46 -14t14 -43v-47h-84v19q0 16 -16 16h-74q-9 0 -12 -3.5t-3 -12.5v-53h141q26 0 37 -12.5t11 -35.5v-93q0 -30 -12.5 -44.5t-45.5 -14.5h-157zM230 119q0 13 -14 13h-93v-51q0 -10 3 -14
t12 -4h77q9 0 12 4t3 14v38z" />
    <glyph glyph-name="uni2087" unicode="&#x2087;" horiz-adv-x="305" 
d="M48 -10l131 262h-152v76h246v-62l-129 -276h-96z" />
    <glyph glyph-name="uni2088" unicode="&#x2088;" horiz-adv-x="352" 
d="M96 -10q-32 0 -45 14t-13 43v81q0 19 11.5 27t29.5 10q-18 2 -28.5 11.5t-10.5 30.5v64q0 29 14 43t46 14h151q32 0 46 -14t14 -43v-64q0 -21 -10.5 -30.5t-27.5 -11.5q17 -2 28.5 -10t11.5 -27v-81q0 -29 -13 -43t-45 -14h-159zM227 244q0 15 -16 15h-71q-15 0 -15 -15
v-43q0 -13 14 -13h73q15 0 15 13v43zM227 123q0 13 -15 13h-73q-15 0 -15 -13v-46q0 -15 15 -15h73q15 0 15 15v46z" />
    <glyph glyph-name="uni2089" unicode="&#x2089;" horiz-adv-x="354" 
d="M98 -10q-32 0 -45 14t-13 43v51h85v-20q0 -10 3.5 -13t13.5 -3h73q9 0 12 3t3 13v48h-142q-26 0 -37 12.5t-11 35.5v95q0 30 12.5 44.5t45.5 14.5h158q34 0 46.5 -14.5t12.5 -44.5v-220q0 -30 -12.5 -44.5t-46.5 -14.5h-158zM230 238q0 11 -3 14.5t-12 3.5h-78
q-8 0 -11.5 -3.5t-3.5 -14.5v-41q0 -14 14 -14h94v55z" />
    <glyph glyph-name="Euro" unicode="&#x20ac;" horiz-adv-x="582" 
d="M177 0q-65 0 -89.5 29t-24.5 89v132h-44l12 65h32v55h-44l12 65h32v124q0 60 24.5 89t89.5 29h368l-41 -130h-264q-20 0 -26 -8t-6 -28v-76h250l-20 -65h-230v-55h212l-21 -65h-191v-83q0 -20 6 -27.5t26 -7.5h295v-132h-358z" />
    <glyph glyph-name="trademark" unicode="&#x2122;" horiz-adv-x="777" 
d="M116 322v274h-84v81h259v-81h-82v-274h-93zM634 322v184l-81 -184h-52l-80 182v-182h-81v355h93l95 -227l93 227h95v-355h-82z" />
    <glyph glyph-name="Omega" unicode="&#x2126;" horiz-adv-x="688" 
d="M371 0v123l85 115q12 16 18.5 36t6.5 52v177q0 24 -7.5 33t-30.5 9h-201q-20 0 -27.5 -9t-7.5 -33v-177q0 -32 6.5 -52t18.5 -36l84 -115v-123h-256v125h136l-97 104q-14 15 -22 27.5t-13 27.5t-6.5 34.5t-1.5 47.5v193q0 60 25.5 89t90.5 29h345q65 0 90 -29t25 -89
v-193q0 -28 -1.5 -47.5t-6.5 -34.5t-13.5 -27.5t-21.5 -27.5l-97 -104h136v-125h-257z" />
    <glyph glyph-name="onethird" unicode="&#x2153;" horiz-adv-x="684" 
d="M100 349v262h-39v76h127v-338h-88zM51 0l408 677h80l-408 -677h-80zM421 -10q-32 0 -45 14t-13 43v53h86v-23q0 -15 15 -15h73q15 0 15 15v46q0 12 -15 12h-63v54h63q15 0 15 13v42q0 15 -16 15h-71q-15 0 -15 -15v-20h-85v47q0 29 14 43t46 14h151q32 0 46 -14t14 -43
v-64q0 -21 -10.5 -30.5t-27.5 -11.5q17 -2 28.5 -10t11.5 -27v-81q0 -29 -13 -43t-45 -14h-159z" />
    <glyph glyph-name="twothirds" unicode="&#x2154;" horiz-adv-x="758" 
d="M48 349v132q0 35 13 50.5t49 15.5h111q14 0 14 15v40q0 9 -3 12.5t-12 3.5h-73q-16 0 -16 -16v-19h-84v47q0 29 14 43t46 14h156q33 0 46 -14.5t13 -44.5v-90q0 -28 -12.5 -41.5t-41.5 -13.5h-118q-14 0 -14 -17v-43h186v-74h-274zM145 0l408 677h80l-408 -677h-80z
M495 -10q-32 0 -45 14t-13 43v53h86v-23q0 -15 15 -15h73q15 0 15 15v46q0 12 -15 12h-63v54h63q15 0 15 13v42q0 15 -16 15h-71q-15 0 -15 -15v-20h-85v47q0 29 14 43t46 14h151q32 0 46 -14t14 -43v-64q0 -21 -10.5 -30.5t-27.5 -11.5q17 -2 28.5 -10t11.5 -27v-81
q0 -29 -13 -43t-45 -14h-159z" />
    <glyph glyph-name="oneeighth" unicode="&#x215b;" horiz-adv-x="680" 
d="M100 349v262h-39v76h127v-338h-88zM51 0l408 677h80l-408 -677h-80zM417 -10q-32 0 -45 14t-13 43v81q0 19 11.5 27t29.5 10q-18 2 -28.5 11.5t-10.5 30.5v64q0 29 14 43t46 14h151q32 0 46 -14t14 -43v-64q0 -21 -10.5 -30.5t-27.5 -11.5q17 -2 28.5 -10t11.5 -27v-81
q0 -29 -13 -43t-45 -14h-159zM548 244q0 15 -16 15h-71q-15 0 -15 -15v-43q0 -13 14 -13h73q15 0 15 13v43zM548 123q0 13 -15 13h-73q-15 0 -15 -13v-46q0 -15 15 -15h73q15 0 15 15v46z" />
    <glyph glyph-name="threeeighths" unicode="&#x215c;" horiz-adv-x="753" 
d="M105 349q-32 0 -45 14t-13 43v53h86v-23q0 -15 15 -15h73q15 0 15 15v46q0 12 -15 12h-63v54h63q15 0 15 13v42q0 15 -16 15h-71q-15 0 -15 -15v-20h-85v47q0 29 14 43t46 14h151q32 0 46 -14t14 -43v-64q0 -21 -10.5 -30.5t-27.5 -11.5q17 -2 28.5 -10t11.5 -27v-81
q0 -29 -13 -43t-45 -14h-159zM134 0l408 677h80l-408 -677h-80zM490 -10q-32 0 -45 14t-13 43v81q0 19 11.5 27t29.5 10q-18 2 -28.5 11.5t-10.5 30.5v64q0 29 14 43t46 14h151q32 0 46 -14t14 -43v-64q0 -21 -10.5 -30.5t-27.5 -11.5q17 -2 28.5 -10t11.5 -27v-81
q0 -29 -13 -43t-45 -14h-159zM621 244q0 15 -16 15h-71q-15 0 -15 -15v-43q0 -13 14 -13h73q15 0 15 13v43zM621 123q0 13 -15 13h-73q-15 0 -15 -13v-46q0 -15 15 -15h73q15 0 15 15v46z" />
    <glyph glyph-name="fiveeighths" unicode="&#x215d;" horiz-adv-x="753" 
d="M105 349q-32 0 -45 14t-13 43v53h86v-23q0 -15 14 -15h71q9 0 12 3.5t3 11.5v45q0 14 -13 14h-173v192h265v-76h-177v-52h138q25 0 36.5 -12.5t11.5 -35.5v-103q0 -30 -12.5 -44.5t-45.5 -14.5h-158zM134 0l408 677h80l-408 -677h-80zM490 -10q-32 0 -45 14t-13 43v81
q0 19 11.5 27t29.5 10q-18 2 -28.5 11.5t-10.5 30.5v64q0 29 14 43t46 14h151q32 0 46 -14t14 -43v-64q0 -21 -10.5 -30.5t-27.5 -11.5q17 -2 28.5 -10t11.5 -27v-81q0 -29 -13 -43t-45 -14h-159zM621 244q0 15 -16 15h-71q-15 0 -15 -15v-43q0 -13 14 -13h73q15 0 15 13v43
zM621 123q0 13 -15 13h-73q-15 0 -15 -13v-46q0 -15 15 -15h73q15 0 15 15v46z" />
    <glyph glyph-name="seveneighths" unicode="&#x215e;" horiz-adv-x="680" 
d="M71 349l131 262h-152v76h246v-62l-129 -276h-96zM51 0l408 677h80l-408 -677h-80zM417 -10q-32 0 -45 14t-13 43v81q0 19 11.5 27t29.5 10q-18 2 -28.5 11.5t-10.5 30.5v64q0 29 14 43t46 14h151q32 0 46 -14t14 -43v-64q0 -21 -10.5 -30.5t-27.5 -11.5q17 -2 28.5 -10
t11.5 -27v-81q0 -29 -13 -43t-45 -14h-159zM548 244q0 15 -16 15h-71q-15 0 -15 -15v-43q0 -13 14 -13h73q15 0 15 13v43zM548 123q0 13 -15 13h-73q-15 0 -15 -13v-46q0 -15 15 -15h73q15 0 15 15v46z" />
    <glyph glyph-name="partialdiff" unicode="&#x2202;" horiz-adv-x="479" 
d="M194 675q23 5 44 5q39 0 75.5 -15.5t64.5 -49t44.5 -86t16.5 -125.5q0 -83 -10.5 -159t-36.5 -134t-69 -93t-108 -35q-84 0 -132.5 57t-48.5 159q0 56 13.5 99.5t37.5 73.5t57 46t72 16q19 0 39.5 -4.5t39 -16t34 -30.5t24.5 -47q3 20 4 38.5t1 37.5q0 81 -34.5 128
t-95.5 47q-14 0 -32 -3v91zM339 235q-11 56 -38 82t-81 26q-47 0 -74.5 -37.5t-27.5 -107.5q0 -60 27 -91.5t70 -31.5q52 0 82.5 39t41.5 121z" />
    <glyph glyph-name="Delta" unicode="&#x2206;" horiz-adv-x="636" 
d="M16 0l223 677h172l208 -677h-603zM320 506l-122 -368h236z" />
    <glyph glyph-name="product" unicode="&#x220f;" horiz-adv-x="485" 
d="M337 -233v830h-196v-830h-93v910h383v-910h-94z" />
    <glyph glyph-name="summation" unicode="&#x2211;" horiz-adv-x="438" 
d="M37 -171v64l197 359l-197 360v65h356v-94h-231l171 -331l-171 -330h231v-93h-356z" />
    <glyph glyph-name="minus" unicode="&#x2212;" horiz-adv-x="633" 
d="M53 299v100h526v-100h-526z" />
    <glyph glyph-name="radical" unicode="&#x221a;" horiz-adv-x="492" 
d="M171 0l-92 292h-57v86h143l61 -239l132 538h111l-185 -677h-113z" />
    <glyph glyph-name="infinity" unicode="&#x221e;" horiz-adv-x="627" 
d="M313 274q-19 -48 -55.5 -74t-93.5 -26q-29 0 -54 10.5t-43.5 31.5t-29.5 52t-11 72q0 42 11 73t29.5 52t43.5 31.5t54 10.5q57 0 92 -26.5t57 -75.5q23 49 58 75.5t92 26.5q28 0 53 -10.5t44 -31.5t30 -52t11 -73q0 -41 -11 -72t-30 -52t-44 -31.5t-53 -10.5
q-57 0 -93.5 26t-56.5 74zM280 337q-17 42 -41 66t-61 24q-38 0 -58 -23.5t-20 -63.5q0 -89 78 -89q39 0 64.5 24.5t37.5 61.5zM346 337q12 -38 38 -62t65 -24q78 0 78 89q0 40 -20 63.5t-58 23.5q-37 0 -61.5 -24t-41.5 -66z" />
    <glyph glyph-name="integral" unicode="&#x222b;" horiz-adv-x="355" 
d="M19 -171v92h33q29 0 45 15.5t16 49.5v574q0 158 181 158h32v-93h-32q-61 0 -61 -65v-574q0 -157 -181 -157h-33z" />
    <glyph glyph-name="approxequal" unicode="&#x2248;" horiz-adv-x="630" 
d="M574 206q-26 -20 -65 -29t-72 -9q-34 0 -64 8.5t-59 19t-57 19t-57 8.5q-35 0 -71 -10t-74 -34v96q13 10 29.5 17.5t35 12.5t37 7t34.5 2q33 0 63 -9t58.5 -19.5t57 -19t59.5 -8.5q35 0 71 10t74 34v-96zM574 425q-26 -20 -65 -29t-72 -9q-34 0 -64 8.5t-59 19t-57 19
t-57 8.5q-35 0 -71 -10t-74 -34v96q13 10 29.5 17.5t35 12.5t37 7t34.5 2q33 0 63 -9t58.5 -19.5t57 -19t59.5 -8.5q35 0 71 10t74 34v-96z" />
    <glyph glyph-name="notequal" unicode="&#x2260;" horiz-adv-x="632" 
d="M407 424l-90 -150h260v-87h-313l-112 -187h-80l112 187h-129v87h182l90 150h-272v88h325l100 165h80l-100 -165h117v-88h-170z" />
    <glyph glyph-name="lessequal" unicode="&#x2264;" horiz-adv-x="632" 
d="M55 299v64l522 224v-95l-380 -161l380 -161v-94zM53 -37v100h526v-100h-526z" />
    <glyph glyph-name="greaterequal" unicode="&#x2265;" horiz-adv-x="632" 
d="M55 76v94l380 161l-380 161v95l522 -224v-64zM53 -37v100h526v-100h-526z" />
    <glyph glyph-name="dotmath" unicode="&#x22c5;" horiz-adv-x="239" 
d="M56 244v151h128v-151h-128z" />
    <glyph glyph-name="lozenge" unicode="&#x25ca;" horiz-adv-x="535" 
d="M211 0l-178 338l178 339h118l170 -339l-170 -338h-118zM371 338l-102 209l-104 -209l104 -208z" />
    <glyph glyph-name="uniF8FF" unicode="&#xf8ff;" horiz-adv-x="276" 
 />
    <glyph glyph-name="uniFB01" unicode="&#xfb01;" horiz-adv-x="600" 
d="M53 0v602q0 64 23 90t72 26h174v-109h-105q-14 0 -19 -6t-5 -20v-77h125v-110h-125v-396h-140zM403 0v506h140v-506h-140zM403 566v152h141v-152h-141z" />
    <glyph glyph-name="uniFB02" unicode="&#xfb02;" horiz-adv-x="595" 
d="M53 0v602q0 64 23 90t72 26h174v-109h-105q-14 0 -19 -6t-5 -20v-77h125v-110h-125v-396h-140zM401 0v718h140v-718h-140z" />
    <glyph glyph-name="glyph406" horiz-adv-x="168" 
 />
    </font>
</defs>
</svg>
