<svg width="52" height="62" viewBox="0 0 52 62" fill="none" xmlns="http://www.w3.org/2000/svg">
<g opacity="0.7">
<g filter="url(#filter0_d_427_10055)">
<rect x="10.4199" y="8.5" width="31" height="41.5" rx="15.5" fill="white" fill-opacity="0.01" shape-rendering="crispEdges"/>
<path d="M26.0824 26.1094C29.0355 26.1094 31.473 28.5469 31.473 31.5C31.473 34.5 29.0355 36.8906 26.0824 36.8906C23.0824 36.8906 20.6918 34.5 20.6918 31.5C20.6918 28.5469 23.0824 26.1094 26.0824 26.1094ZM26.0824 35.0156C28.0043 35.0156 29.5512 33.4688 29.5512 31.5C29.5512 29.5781 28.0043 28.0312 26.0824 28.0312C24.1137 28.0312 22.5668 29.5781 22.5668 31.5C22.5668 33.4688 24.1605 35.0156 26.0824 35.0156ZM32.9262 25.9219C32.9262 26.625 32.3637 27.1875 31.6605 27.1875C30.9574 27.1875 30.3949 26.625 30.3949 25.9219C30.3949 25.2188 30.9574 24.6562 31.6605 24.6562C32.3637 24.6562 32.9262 25.2188 32.9262 25.9219ZM36.4887 27.1875C36.5824 28.9219 36.5824 34.125 36.4887 35.8594C36.3949 37.5469 36.0199 39 34.8012 40.2656C33.5824 41.4844 32.0824 41.8594 30.3949 41.9531C28.6605 42.0469 23.4574 42.0469 21.723 41.9531C20.0355 41.8594 18.5824 41.4844 17.3168 40.2656C16.098 39 15.723 37.5469 15.6293 35.8594C15.5355 34.125 15.5355 28.9219 15.6293 27.1875C15.723 25.5 16.098 24 17.3168 22.7812C18.5824 21.5625 20.0355 21.1875 21.723 21.0938C23.4574 21 28.6605 21 30.3949 21.0938C32.0824 21.1875 33.5824 21.5625 34.8012 22.7812C36.0199 24 36.3949 25.5 36.4887 27.1875ZM34.2387 37.6875C34.8012 36.3281 34.6605 33.0469 34.6605 31.5C34.6605 30 34.8012 26.7188 34.2387 25.3125C33.8637 24.4219 33.1605 23.6719 32.2699 23.3438C30.8637 22.7812 27.5824 22.9219 26.0824 22.9219C24.5355 22.9219 21.2543 22.7812 19.8949 23.3438C18.9574 23.7188 18.2543 24.4219 17.8793 25.3125C17.3168 26.7188 17.4574 30 17.4574 31.5C17.4574 33.0469 17.3168 36.3281 17.8793 37.6875C18.2543 38.625 18.9574 39.3281 19.8949 39.7031C21.2543 40.2656 24.5355 40.125 26.0824 40.125C27.5824 40.125 30.8637 40.2656 32.2699 39.7031C33.1605 39.3281 33.9105 38.625 34.2387 37.6875Z" fill="#45B6BC"/>
</g>
</g>
<defs>
<filter id="filter0_d_427_10055" x="0.419922" y="0.5" width="51" height="61.5" filterUnits="userSpaceOnUse" color-interpolation-filters="sRGB">
<feFlood flood-opacity="0" result="BackgroundImageFix"/>
<feColorMatrix in="SourceAlpha" type="matrix" values="0 0 0 0 0 0 0 0 0 0 0 0 0 0 0 0 0 0 127 0" result="hardAlpha"/>
<feOffset dy="2"/>
<feGaussianBlur stdDeviation="5"/>
<feComposite in2="hardAlpha" operator="out"/>
<feColorMatrix type="matrix" values="0 0 0 0 0.203922 0 0 0 0 0.239216 0 0 0 0 0.278431 0 0 0 0.2 0"/>
<feBlend mode="normal" in2="BackgroundImageFix" result="effect1_dropShadow_427_10055"/>
<feBlend mode="normal" in="SourceGraphic" in2="effect1_dropShadow_427_10055" result="shape"/>
</filter>
</defs>
</svg>
